<?xml version="1.0" encoding="utf-8"?>
<!-- Generator: Adobe Illustrator 25.1.0, SVG Export Plug-In . SVG Version: 6.00 Build 0)  -->
<svg version="1.1" id="Laag_1" xmlns="http://www.w3.org/2000/svg" xmlns:xlink="http://www.w3.org/1999/xlink" x="0px" y="0px"
	 viewBox="0 0 244.5 239.9" enable-background="new 0 0 244.5 239.9" xml:space="preserve">
<path fill="#211261" d="M124.5,120"/>
<path fill="#211261" d="M124.5,0C58.2,0,4.5,53.7,4.5,120s53.7,120,120,120s120-53.7,120-120C244.4,53.8,190.7,0.1,124.5,0L124.5,0z
	"/>
<g>
	<path fill="#FFFFFF" stroke="#211261" stroke-width="4.252" stroke-miterlimit="10" d="M119.4,144.1c0,8.8-7.2,16-16,16
		s-16-7.2-16-16s7.2-16,16-16S119.4,135.3,119.4,144.1L119.4,144.1z"/>
	<path fill="#FFFFFF" stroke="#211261" stroke-width="4.252" stroke-miterlimit="10" d="M140.8,152.3c0,4.4,3.6,8,8,8s8-3.6,8-8
		c0-33.9-27.6-61.6-61.6-61.6c-4.4,0-8,3.6-8,8s3.6,8,8,8C120.4,106.7,140.8,127.2,140.8,152.3L140.8,152.3z"/>
	<path fill="#FFFFFF" stroke="#211261" stroke-width="4.252" stroke-miterlimit="10" d="M178.4,160.3c4.4,0,8-3.6,8-8
		c0-50.2-40.9-91.1-91.1-91.1c-4.4,0-8,3.6-8,8s3.6,8,8,8c41.4,0,75.1,33.7,75.1,75.1C170.4,156.7,173.9,160.3,178.4,160.3
		L178.4,160.3z"/>
</g>
</svg>
