<?xml version="1.0" encoding="utf-8"?>
<!-- Generator: Adobe Illustrator 25.1.0, SVG Export Plug-In . SVG Version: 6.00 Build 0)  -->
<svg version="1.1" id="Laag_1" xmlns="http://www.w3.org/2000/svg" xmlns:xlink="http://www.w3.org/1999/xlink" x="0px" y="0px"
	 viewBox="0 0 240 240" enable-background="new 0 0 240 240" xml:space="preserve">
<path fill="#211261" d="M120,120"/>
<path fill="#211261" d="M120,0C53.7,0,0,53.7,0,120s53.7,120,120,120s120-53.7,120-120C239.9,53.8,186.2,0.1,120,0L120,0z"/>
<g>
	<path fill="#FFFFFF" stroke="#211261" stroke-width="5.6693" stroke-miterlimit="10" d="M158.7,79.6C148.9,70.5,136.6,66,122,66
		c-15.4,0-28.5,5.2-39.3,15.5C71.9,91.8,66.5,104.7,66.5,120c0,14.7,5.2,27.4,15.4,38c10.3,10.6,24.2,15.9,41.7,15.9
		c10.5,0,20.9-2.2,31-6.5c3.3-1.4,4.9-5.2,3.6-8.5c-1.4-3.4-5.3-5-8.7-3.6c-8.8,3.8-17.4,5.7-25.9,5.7c-13.4,0-23.8-4.1-31.1-12.2
		c-7.3-8.1-11-17.7-11-28.7c0-11.9,3.9-21.9,11.8-29.9c7.8-8,17.5-12,29-12c10.6,0,19.5,3.3,26.8,9.8s10.9,14.8,10.9,24.8
		c0,6.8-1.7,12.5-5,17c-3.3,4.5-6.8,6.8-10.4,6.8c-1.9,0-2.9-1-2.9-3.1c0-1.7,0.1-3.7,0.4-6l4.1-33.5H132l-0.9,3.3
		c-3.6-2.9-7.5-4.4-11.8-4.4c-6.8,0-12.6,2.7-17.4,8.1c-4.8,5.4-7.2,12.4-7.2,20.9c0,8.3,2.1,15,6.4,20.1c4.3,5.1,9.4,7.6,15.5,7.6
		c5.4,0,10-2.3,13.8-6.8c2.9,4.3,7.1,6.5,12.8,6.5c8.3,0,15.4-3.6,21.4-10.8c6-7.2,9-15.9,9-26C173.5,99.7,168.6,88.7,158.7,79.6
		L158.7,79.6z M126.3,130.3c-2.5,3.4-5.5,5.1-8.9,5.1c-2.4,0-4.2-1.2-5.7-3.7c-1.4-2.5-2.2-5.5-2.2-9.2c0-4.5,1-8.2,3-11
		c2-2.8,4.5-4.2,7.5-4.2c2.6,0,4.9,1,6.9,3.1c2,2.1,3,4.9,3,8.3C130,123.1,128.8,126.9,126.3,130.3L126.3,130.3z"/>
</g>
</svg>
