<?xml version="1.0" encoding="utf-8"?>
<!-- Generator: Adobe Illustrator 25.1.0, SVG Export Plug-In . SVG Version: 6.00 Build 0)  -->
<svg version="1.1" id="Laag_1" xmlns="http://www.w3.org/2000/svg" xmlns:xlink="http://www.w3.org/1999/xlink" x="0px" y="0px"
	 viewBox="0 0 209.2 195.3" enable-background="new 0 0 209.2 195.3" xml:space="preserve">
<g>
	<path fill="#292559" d="M121.6,0.7c-2.4-1.2-5.3-0.8-7.4,0.8L46.4,55.8H14c-7.7,0-14,6.3-14,13.9v55.8c0,7.7,6.3,14,14,14h32.4
		l67.8,54.3c1.3,1,2.8,1.5,4.4,1.5c1,0,2.1-0.2,3-0.7c2.4-1.2,3.9-3.6,3.9-6.3V7C125.5,4.3,124,1.9,121.6,0.7L121.6,0.7z"/>
	<path fill="#292559" d="M160.8,48.3c-2.8-2.7-7.1-2.7-9.9,0.1c-2.7,2.8-2.7,7.2,0.1,9.9c10.5,10.4,16.4,24.4,16.4,39.4
		c0,15-5.8,29-16.4,39.4c-2.7,2.7-2.8,7.1-0.1,9.9c1.4,1.4,3.2,2.1,4.9,2.1c1.8,0,3.5-0.7,4.9-2c13.2-13,20.5-30.5,20.5-49.3
		C181.3,78.9,174.1,61.4,160.8,48.3L160.8,48.3z"/>
	<path fill="#292559" d="M180.5,28.7c-2.8-2.7-7.1-2.7-9.9,0c-2.7,2.7-2.7,7.2,0,9.9c15.9,15.7,24.6,36.7,24.6,59.1
		s-8.7,43.3-24.6,59.1c-2.7,2.7-2.8,7.1,0,9.9c1.4,1.4,3.2,2.1,4.9,2.1c1.8,0,3.6-0.7,4.9-2c18.5-18.3,28.7-42.8,28.7-69
		C209.2,71.5,199,47,180.5,28.7L180.5,28.7z"/>
</g>
</svg>
