<?xml version="1.0" encoding="utf-8"?>
<!-- Generator: Adobe Illustrator 25.2.0, SVG Export Plug-In . SVG Version: 6.00 Build 0)  -->
<svg version="1.1" id="Laag_1" xmlns="http://www.w3.org/2000/svg" xmlns:xlink="http://www.w3.org/1999/xlink" x="0px" y="0px"
	 viewBox="0 0 262.22 263.7" style="enable-background:new 0 0 262.22 263.7;" xml:space="preserve">
<path class="st0" d="M236.29,72.02c-7.82,3.43-16.16,5.71-24.85,6.81c8.94-5.34,15.76-13.73,18.97-23.84
	c-8.34,4.97-17.54,8.48-27.35,10.44c-7.91-8.43-19.2-13.65-31.5-13.65c-23.88,0-43.1,19.38-43.1,43.14c0,3.42,0.29,6.71,1,9.83
	c-35.85-1.75-67.58-18.93-88.89-45.11c-3.72,6.46-5.9,13.84-5.9,21.8c0,14.94,7.69,28.18,19.16,35.84
	c-6.93-0.13-13.73-2.14-19.49-5.31c0,0.13,0,0.3,0,0.47c0,20.96,14.95,38.37,34.55,42.38c-3.51,0.96-7.34,1.42-11.31,1.42
	c-2.76,0-5.55-0.16-8.16-0.74c5.59,17.08,21.44,29.64,40.3,30.04c-14.67,11.48-33.3,18.39-53.47,18.39c-3.54,0-6.93-0.16-10.32-0.59
	c19.1,12.32,41.74,19.35,66.16,19.35c79.36,0,122.75-65.74,122.75-122.72c0-1.91-0.07-3.75-0.16-5.57
	C223.24,88.33,230.43,80.75,236.29,72.02z"/>
</svg>
