<?xml version="1.0" encoding="utf-8"?>
<!-- Generator: Adobe Illustrator 25.2.0, SVG Export Plug-In . SVG Version: 6.00 Build 0)  -->
<svg version="1.1" id="Laag_1" xmlns="http://www.w3.org/2000/svg" xmlns:xlink="http://www.w3.org/1999/xlink" x="0px" y="0px"
	 viewBox="0 0 262.22 263.7" style="enable-background:new 0 0 262.22 263.7;" xml:space="preserve">
<g>
	<path class="st0" d="M235.77,83.16c-2.37-8.8-9.31-15.74-18.11-18.11c-16.08-4.4-80.41-4.4-80.41-4.4s-64.32,0-80.41,4.23
		c-8.63,2.37-15.74,9.48-18.11,18.28c-4.23,16.08-4.23,49.43-4.23,49.43s0,33.51,4.23,49.43c2.37,8.8,9.31,15.74,18.11,18.11
		c16.25,4.4,80.41,4.4,80.41,4.4s64.32,0,80.41-4.23c8.8-2.37,15.74-9.31,18.11-18.11c4.23-16.08,4.23-49.43,4.23-49.43
		S240.17,99.24,235.77,83.16L235.77,83.16z M116.76,163.4v-61.62l53.49,30.81L116.76,163.4z M116.76,163.4"/>
</g>
</svg>
