<?xml version="1.0" encoding="utf-8"?>
<!-- Generator: Adobe Illustrator 25.1.0, SVG Export Plug-In . SVG Version: 6.00 Build 0)  -->
<svg version="1.1" id="Laag_1" xmlns="http://www.w3.org/2000/svg" xmlns:xlink="http://www.w3.org/1999/xlink" x="0px" y="0px"
	 viewBox="0 0 384 341.5" enable-background="new 0 0 384 341.5" xml:space="preserve">
<g>
	<g>
		<defs>
			<rect id="SVGID_1_" width="384" height="338"/>
		</defs>
		<clipPath id="SVGID_2_">
			<use xlink:href="#SVGID_1_"  overflow="visible"/>
		</clipPath>
		<path clip-path="url(#SVGID_2_)" fill="#292559" d="M11.2,270.2h294c2.6,0,5.2-0.9,7.2-2.6c2.8-2.4,67.2-57.8,71.2-177.4H67.9
			C64,198.8,4.6,249.9,4,250.4c-3.6,3-5,8-3.3,12.5C2.3,267.3,6.5,270.2,11.2,270.2L11.2,270.2z"/>
	</g>
</g>
<path fill="#292559" d="M372.8,22.7h-56.2V11.5c0-6.3-4.9-11.2-11.2-11.2S294,5.2,294,11.5v11.2h-57V11.5c0-6.3-5-11.2-11.2-11.2
	s-11.2,5-11.2,11.2v11.2h-56.2V11.5c0-6.3-5-11.2-11.2-11.2s-11.2,5-11.2,11.2v11.2H79.5c-6.3,0-11.2,5-11.2,11.2v33.8H384V34
	C384,27.7,379.1,22.7,372.8,22.7L372.8,22.7z"/>
<path fill="#292559" d="M326.9,284.9c-6.1,5.1-13.8,7.9-21.7,7.9h-237v33.8c0,6.2,5,11.2,11.2,11.2h293.3c6.2,0,11.2-5,11.2-11.2
	V200.4C362.3,253.6,332,280.6,326.9,284.9L326.9,284.9z"/>
</svg>
