<svg xmlns="http://www.w3.org/2000/svg" xmlns:xlink="http://www.w3.org/1999/xlink" version="1.1" id="Layer_1" x="0px" y="0px" viewBox="0 0 512 512" style="enable-background:new 0 0 512 512;" xml:space="preserve">
<style type="text/css">
	.st0{fill:#ceb88b;}
	.st1{fill:#ffffff;}
</style>
<g>
	<path class="st0" d="M256,0C114.6,0,0,114.6,0,256c0,141.4,114.6,256,256,256c141.4,0,256-114.6,256-256C512,114.6,397.4,0,256,0z"/>
	
	<path class="st1" d="M259.2,164.2c30.3,0,50.9,19.3,53.1,47.7c0.2,2.4,2.2,4.2,4.6,4.2h32.4c1.5,0,2.7-1.2,2.7-2.7   c0-49.5-39.1-84.2-93-84.2c-62.8,0-99,42.4-99,112.5v29.9c0,69.5,36.2,111.4,99,111.4c53.7,0,93-33.6,93-80.8   c0-1.5-1.2-2.7-2.7-2.7h-32.5c-2.4,0-4.3,1.8-4.6,4.2c-2.4,26.3-22.9,44.5-53.1,44.5c-37.3,0-58.3-27.4-58.3-76.3v-30.1   C200.9,191.9,221.9,164.2,259.2,164.2z"/>
</g>
</svg>