<?xml version="1.0" encoding="utf-8"?>
<!-- Generator: Adobe Illustrator 25.2.0, SVG Export Plug-In . SVG Version: 6.00 Build 0)  -->
<svg version="1.1" id="Laag_1" xmlns="http://www.w3.org/2000/svg" xmlns:xlink="http://www.w3.org/1999/xlink" x="0px" y="0px"
	 viewBox="0 0 262.22 263.7" style="enable-background:new 0 0 262.22 263.7;" xml:space="preserve">
<style type="text/css">
	.st0{fill:#292559;}
</style>
<g>
	<path class="st0" d="M148.08,34.91c-2.43-1.16-5.28-0.85-7.38,0.84L72.87,90.01H40.45c-7.68,0-13.95,6.26-13.95,13.95v55.79
		c0,7.7,6.26,13.95,13.95,13.95h32.41l67.82,54.27c1.27,1,2.82,1.52,4.37,1.52c1.03,0,2.06-0.24,3.03-0.7
		c2.41-1.16,3.95-3.6,3.95-6.28V41.2C152.03,38.52,150.5,36.08,148.08,34.91L148.08,34.91z M148.08,34.91"/>
	<path class="st0" d="M187.33,82.54c-2.75-2.71-7.15-2.67-9.86,0.05c-2.71,2.75-2.68,7.16,0.05,9.87
		c10.54,10.4,16.35,24.39,16.35,39.39c0,14.99-5.8,28.98-16.35,39.38c-2.73,2.69-2.76,7.11-0.05,9.86c1.37,1.38,3.16,2.07,4.95,2.07
		c1.77,0,3.54-0.67,4.91-2.02c13.22-13.01,20.49-30.53,20.49-49.29C207.82,113.1,200.55,95.58,187.33,82.54L187.33,82.54z
		 M187.33,82.54"/>
	<path class="st0" d="M207.01,62.89c-2.75-2.72-7.15-2.69-9.87,0.04c-2.71,2.73-2.68,7.16,0.04,9.86
		c15.86,15.72,24.59,36.7,24.59,59.07s-8.73,43.33-24.59,59.05c-2.72,2.72-2.75,7.14-0.04,9.87c1.38,1.37,3.16,2.05,4.95,2.05
		c1.77,0,3.56-0.67,4.92-2.02c18.52-18.34,28.7-42.83,28.7-68.95C235.71,105.73,225.53,81.24,207.01,62.89L207.01,62.89z
		 M207.01,62.89"/>
</g>
</svg>
