<?xml version="1.0" encoding="utf-8"?>
<!-- Generator: Adobe Illustrator 25.2.0, SVG Export Plug-In . SVG Version: 6.00 Build 0)  -->
<svg version="1.1" id="Laag_1" xmlns="http://www.w3.org/2000/svg" xmlns:xlink="http://www.w3.org/1999/xlink" x="0px" y="0px"
	 viewBox="0 0 262.22 263.7" style="enable-background:new 0 0 262.22 263.7;" xml:space="preserve">
<style type="text/css">
	.st0{fill:#FFFFFF;}
</style>
<g>
	<path class="st0" d="M62.32,33.57c-15.08,0-24.94,9.9-24.94,22.92c0,12.73,9.56,22.91,24.36,22.91h0.29
		c15.37,0,24.94-10.18,24.94-22.91C86.68,43.48,77.4,33.57,62.32,33.57L62.32,33.57z M62.32,33.57"/>
	<rect x="39.98" y="97.51" class="st0" width="44.08" height="132.62"/>
	<path class="st0" d="M192.26,94.39c-23.78,0-39.73,22.35-39.73,22.35V97.51h-44.08v132.62h44.08v-74.06
		c0-3.96,0.29-7.92,1.45-10.76c3.19-7.92,10.44-16.12,22.62-16.12c15.95,0,22.33,12.16,22.33,29.99v70.95h44.08v-76.04
		C243.01,113.35,221.27,94.39,192.26,94.39L192.26,94.39z M192.26,94.39"/>
</g>
</svg>
