<?xml version="1.0" encoding="utf-8"?>
<!-- Generator: Adobe Illustrator 25.1.0, SVG Export Plug-In . SVG Version: 6.00 Build 0)  -->
<svg version="1.1" id="Capa_1" xmlns="http://www.w3.org/2000/svg" xmlns:xlink="http://www.w3.org/1999/xlink" x="0px" y="0px"
	 viewBox="0 0 289.6 283.4" enable-background="new 0 0 289.6 283.4" xml:space="preserve">
<path fill="#FE402F" d="M289.5,196c0,0-0.3-15.5-24.6-23.8s-77.9,0-77.9,0c-19.4-17-45.7-58.8-45.7-58.8s8.5-19.2,15.3-56.3
	C166.6,3,134.7,0.2,134.7,0.2s-25.6-4.6-26,30.3s17.2,68.6,17.2,68.6c-14.2,47.9-44.9,104.5-44.9,104.5
	c-63.7,26.6-72.5,42.8-76.9,47.9c-4.4,5.1-13.7,37.3,25.7,31.1s74.8-80.1,74.8-80.1c20.2-10.1,81.3-22.8,81.3-22.8
	s19.6,28.7,63.7,34.8C293.9,220.7,289.5,196,289.5,196z M26,273.1c-9.5,4.5-18.5-1.4-19.7-6.7c-1.6-6.8,5-18,17.6-26.1
	c25.3-16.3,49.9-25.7,49.9-25.7S56.3,258.9,26,273.1z M115.8,19.2C118.5,9,128.9,6.1,133.7,8.5c6.2,3.2,10.4,15.5,8.4,30.4
	c-4.1,29.8-12.9,54.6-12.9,54.6S106.9,51.4,115.8,19.2z M108.7,192.2c14.5-22.9,30-69.5,30-69.5c8.4,16.2,40.1,53.4,40.1,53.4
	C160.3,177,108.7,192.2,108.7,192.2z M253.9,206.6c-33.4,0-60.2-28-60.2-28s21.9-3.1,51.3-2.2c15,0.5,24.7,5.1,26,12
	C271.9,193.7,270.4,206.6,253.9,206.6z"/>
</svg>
