<?xml version="1.0" encoding="utf-8"?>
<!-- Generator: Adobe Illustrator 25.1.0, SVG Export Plug-In . SVG Version: 6.00 Build 0)  -->
<svg version="1.1" id="Laag_1" xmlns="http://www.w3.org/2000/svg" xmlns:xlink="http://www.w3.org/1999/xlink" x="0px" y="0px"
	 viewBox="0 0 240 240" enable-background="new 0 0 240 240" xml:space="preserve">
<path fill="#211261" d="M120,120"/>
<path fill="#211261" d="M120,0C53.7,0,0,53.7,0,120s53.7,120,120,120s120-53.7,120-120C239.9,53.8,186.2,0.1,120,0L120,0z"/>
<g>
	<path fill="#FFFFFF" d="M166.8,93h-12.2V73.1c0-1.8-1.5-3.3-3.3-3.3H88.7c-1.8,0-3.3,1.5-3.3,3.3V93H73.2c-4.2,0-7.7,3.4-7.7,7.7
		v42.2c0,4.2,3.4,7.7,7.7,7.7h12.2v16.3c0,1.8,1.5,3.3,3.3,3.3h62.6c1.8,0,3.3-1.5,3.3-3.3v-16.3h12.2c4.2,0,7.7-3.4,7.7-7.7v-42.2
		C174.4,96.4,171,93,166.8,93L166.8,93z M92,76.4h56V93H92V76.4z M148,163.6H92V131h56L148,163.6L148,163.6z M167.9,142.9
		c0,0.6-0.5,1.1-1.1,1.1h-12.2v-16.3c0-1.8-1.5-3.3-3.3-3.3H88.7c-1.8,0-3.3,1.5-3.3,3.3V144H73.2c-0.6,0-1.1-0.5-1.1-1.1v-42.2
		c0-0.6,0.5-1.1,1.1-1.1h93.5c0.6,0,1.1,0.5,1.1,1.1L167.9,142.9L167.9,142.9z"/>
	<path fill="#FFFFFF" d="M156,112c0,2.6-2.1,4.7-4.7,4.7c-2.6,0-4.7-2.1-4.7-4.7c0-2.6,2.1-4.7,4.7-4.7
		C153.9,107.3,156,109.4,156,112L156,112z"/>
	<path fill="#FFFFFF" d="M135,137.5h-30c-1.8,0-3.3,1.5-3.3,3.3c0,1.8,1.5,3.3,3.3,3.3h30c1.8,0,3.3-1.5,3.3-3.3
		C138.3,138.9,136.8,137.5,135,137.5L135,137.5z"/>
	<path fill="#FFFFFF" d="M135,150.6h-30c-1.8,0-3.3,1.5-3.3,3.3c0,1.8,1.5,3.3,3.3,3.3h30c1.8,0,3.3-1.5,3.3-3.3
		C138.3,152,136.8,150.6,135,150.6L135,150.6z"/>
</g>
</svg>
