<?xml version="1.0" encoding="utf-8"?>
<!-- Generator: Adobe Illustrator 25.1.0, SVG Export Plug-In . SVG Version: 6.00 Build 0)  -->
<svg version="1.1" id="Laag_1" xmlns="http://www.w3.org/2000/svg" xmlns:xlink="http://www.w3.org/1999/xlink" x="0px" y="0px"
	 viewBox="0 0 240 240" enable-background="new 0 0 240 240" xml:space="preserve">
<g>
	<path fill="#211261" d="M160.4,84.3H79.7l40.3,34.6L160.4,84.3z"/>
	<path fill="#211261" d="M120,127.1c-0.9,0-1.7-0.3-2.3-0.9L73.6,88.5v67.2h92.9V88.5l-44.1,37.8C121.7,126.8,120.9,127.1,120,127.1
		L120,127.1z"/>
	<path fill="#211261" d="M120,0C53.7,0,0,53.7,0,120s53.7,120,120,120s120-53.7,120-120C239.9,53.8,186.2,0.1,120,0L120,0z
		 M173.6,159.3c0,2-1.6,3.6-3.6,3.6H70c-2,0-3.6-1.6-3.6-3.6V80.7c0-2,1.6-3.6,3.6-3.6h100c2,0,3.6,1.6,3.6,3.6V159.3z"/>
</g>
</svg>
