<?xml version="1.0" encoding="iso-8859-1"?>
<!-- Generator: Adobe Illustrator 25.2.0, SVG Export Plug-In . SVG Version: 6.00 Build 0)  -->
<svg version="1.1" id="Laag_1" xmlns="http://www.w3.org/2000/svg" xmlns:xlink="http://www.w3.org/1999/xlink" x="0px" y="0px"
	 viewBox="0 0 393.756 393.957" style="enable-background:new 0 0 393.756 393.957;" xml:space="preserve">
<g>
	<path style="fill:#FFFFFF;" d="M376.884,196.516c0-1.624-0.041-3.238-0.123-4.842c0-0.001,0-0.001,0-0.002
		c-2.583-95.614-81.107-172.612-177.33-172.612c-97.849,0-177.455,79.606-177.455,177.457s79.606,177.457,177.455,177.457
		c96.223,0,174.747-76.998,177.33-172.612c0-0.001,0-0.001,0-0.002C376.843,199.754,376.884,198.14,376.884,196.516z
		 M282.662,285.854c-49.264,0-89.342-40.075-89.342-89.339s40.078-89.339,89.342-89.339c35.247,0,65.783,20.519,80.311,50.236
		c-11.4-14.029-28.769-23.022-48.212-23.022c-34.255,0-62.123,27.87-62.123,62.125s27.868,62.125,62.123,62.125
		c19.443,0,36.813-8.993,48.212-23.022C348.445,265.335,317.909,285.854,282.662,285.854z M357.588,253.557
		c-20.351,37.611-60.162,63.218-105.845,63.218c-66.313,0-120.262-53.947-120.262-120.259S185.43,76.257,251.743,76.257
		c45.683,0,85.494,25.607,105.845,63.218c-17.229-22.576-44.399-37.181-74.926-37.181c-51.954,0-94.222,42.27-94.222,94.222
		s42.268,94.222,94.222,94.222C313.189,290.738,340.359,276.133,357.588,253.557z M251.743,71.373
		c-69.004,0-125.143,56.139-125.143,125.143s56.139,125.143,125.143,125.143c39.905,0,75.491-18.781,98.413-47.963
		c-26.004,42.215-72.643,70.426-125.759,70.426c-81.39,0-147.607-66.214-147.607-147.605S143.008,48.911,224.398,48.911
		c53.116,0,99.755,28.21,125.759,70.426C327.235,90.154,291.648,71.373,251.743,71.373z M314.761,253.757
		c-31.563,0-57.243-25.678-57.243-57.241s25.68-57.241,57.243-57.241s57.243,25.678,57.243,57.241S346.324,253.757,314.761,253.757z
		 M199.431,369.089c-95.157,0-172.575-77.414-172.575-172.573S104.274,23.943,199.431,23.943
		c59.798,0,112.574,30.582,143.551,76.917c-27.964-34.625-70.709-56.832-118.584-56.832c-84.082,0-152.487,68.405-152.487,152.488
		s68.405,152.488,152.487,152.488c47.875,0,90.621-22.207,118.584-56.832C312.005,338.507,259.229,369.089,199.431,369.089z"/>
</g>
<g>
</g>
<g>
</g>
<g>
</g>
<g>
</g>
<g>
</g>
<g>
</g>
</svg>
