<svg xmlns="http://www.w3.org/2000/svg" xmlns:xlink="http://www.w3.org/1999/xlink" width="1016.5" height="82.067" viewBox="0 0 1016.5 82.067">
  <defs>
    <clipPath id="clip-path">
      <path id="Контур_11" data-name="Контур 11" d="M0-24.48H1016.5v-80.7H0Z" transform="translate(0 105.181)" fill="none"/>
    </clipPath>
  </defs>
  <g id="Сгруппировать_17" data-name="Сгруппировать 17" transform="translate(0 105.181)">
    <g id="Сгруппировать_3" data-name="Сгруппировать 3" transform="translate(511.008 -78.388)">
      <path id="Контур_8" data-name="Контур 8" d="M0,0V38.485" fill="none" stroke="#bb352e" stroke-linecap="round" stroke-linejoin="round" stroke-width="2.733" stroke-dasharray="0 8.552"/>
    </g>
    <g id="Сгруппировать_4" data-name="Сгруппировать 4" transform="translate(511.008 -86.754)">
      <path id="Контур_9" data-name="Контур 9" d="M0,0H0M0,51.314H0" fill="none" stroke="#bb352e" stroke-linecap="round" stroke-linejoin="round" stroke-width="2.733"/>
    </g>
    <g id="Сгруппировать_6" data-name="Сгруппировать 6" transform="translate(0 -105.181)" clip-path="url(#clip-path)">
      <g id="Сгруппировать_5" data-name="Сгруппировать 5" transform="translate(11.769 1.049)">
        <path id="Контур_10" data-name="Контур 10" d="M-31.574,0H-321.568" transform="translate(321.568)" fill="none" stroke="#bb352e" stroke-linecap="round" stroke-linejoin="round" stroke-width="2.733" stroke-dasharray="0 8.141"/>
      </g>
    </g>
    <g id="Сгруппировать_7" data-name="Сгруппировать 7" transform="translate(8.98 -95.645)">
      <path id="Контур_12" data-name="Контур 12" d="M0,0V71.165" fill="none" stroke="#bb352e" stroke-linecap="round" stroke-linejoin="round" stroke-width="2.733" stroke-dasharray="0 8.372"/>
    </g>
    <g id="Сгруппировать_10" data-name="Сгруппировать 10" transform="translate(0 -105.181)" clip-path="url(#clip-path)">
      <g id="Сгруппировать_8" data-name="Сгруппировать 8" transform="translate(8.098 1.049)">
        <path id="Контур_13" data-name="Контур 13" d="M-32.773,0h0M-333.78,0h0m0,64.238h0" transform="translate(333.78)" fill="none" stroke="#bb352e" stroke-linecap="round" stroke-linejoin="round" stroke-width="2.733"/>
      </g>
      <g id="Сгруппировать_9" data-name="Сгруппировать 9" transform="translate(729.215 1.049)">
        <path id="Контур_14" data-name="Контур 14" d="M0,0H275.866" fill="none" stroke="#bb352e" stroke-linecap="round" stroke-linejoin="round" stroke-width="2.733" stroke-dasharray="0 8.157"/>
      </g>
    </g>
    <g id="Сгруппировать_11" data-name="Сгруппировать 11" transform="translate(1007.917 -95.645)">
      <path id="Контур_16" data-name="Контур 16" d="M0,0V71.165" fill="none" stroke="#bb352e" stroke-linecap="round" stroke-linejoin="round" stroke-width="2.733" stroke-dasharray="0 8.372"/>
    </g>
    <g id="Сгруппировать_13" data-name="Сгруппировать 13" transform="translate(0 -105.181)" clip-path="url(#clip-path)">
      <g id="Сгруппировать_12" data-name="Сгруппировать 12" transform="translate(721.859 1.049)">
        <path id="Контур_17" data-name="Контур 17" d="M0,0H0M286.9,0h0m0,64.238h0" fill="none" stroke="#bb352e" stroke-linecap="round" stroke-linejoin="round" stroke-width="2.733"/>
      </g>
    </g>
    <g id="Сгруппировать_14" data-name="Сгруппировать 14" transform="translate(0 -39.93)">
      <path id="Контур_19" data-name="Контур 19" d="M0,0,8.449,15.449,17.977,0Z" fill="#bb352e"/>
    </g>
    <g id="Сгруппировать_15" data-name="Сгруппировать 15" transform="translate(502.015 -39.93)">
      <path id="Контур_20" data-name="Контур 20" d="M0,0,8.449,15.449,17.977,0Z" fill="#bb352e"/>
    </g>
    <g id="Сгруппировать_16" data-name="Сгруппировать 16" transform="translate(998.523 -39.93)">
      <path id="Контур_21" data-name="Контур 21" d="M0,0,8.449,15.449,17.977,0Z" fill="#bb352e"/>
    </g>
  </g>
</svg>
