<svg xmlns="http://www.w3.org/2000/svg" width="156" height="93.05" viewBox="0 0 156 93.05">
    <defs>
        <style>
            .cls-1{fill:#f39200}.cls-2{fill:#8f0e29}
        </style>
    </defs>
    <g id="Group_213" transform="translate(-279.218 -213.214)">
        <g id="Group_7" transform="translate(279.218 213.214)">
            <path id="Path_27" d="M312.553 213.214a33.334 33.334 0 1 0 33.331 33.335 33.334 33.334 0 0 0-33.331-33.335zm-8.461 46.64a13.623 13.623 0 1 1 0-26.611c.369.08.733.174 1.09.284a13.643 13.643 0 0 1 7.182 5.258l-6.226 3.594-.13.075a6.344 6.344 0 1 0-1.577 9.526 14.671 14.671 0 0 0-.34 7.874zm14.369 10.3a13.626 13.626 0 0 1-12.984-9.494c-.113-.357-.209-.719-.294-1.088a13.612 13.612 0 0 1 .956-8.853c.161-.341.338-.673.526-1l-.967-.559-.012-.006-4.507-2.6 4.507-2.6.01-.007.967-.557h.006l6.3-3.64h.006l.967-.557.012-.007 4.507-2.6v19.961l-4.507-2.6-.012-.007-.967-.557a6.345 6.345 0 0 0-.849 3.053c0 .039-.006.075-.006.113a6.34 6.34 0 1 0 9.424-5.537 14.722 14.722 0 0 0 6.975-3.649 13.622 13.622 0 0 1-10.058 22.808zm10.058-24.4c-.253.275-.517.54-.791.794a13.566 13.566 0 0 1-8.139 3.591V242.8a6.267 6.267 0 0 0 1.954-.7 6.339 6.339 0 1 0-9.422-5.537c0 .039.005.075.005.113a14.774 14.774 0 0 0-6.649-4.24 13.623 13.623 0 1 1 23.042 13.314z" class="cls-1" transform="translate(-279.218 -213.214)"/>
            <g id="Group_6" transform="translate(76 5.511)">
                <path id="Path_28" d="M420.127 239.333v-14.187h7.9l-.71 2.174h-4.587V231h4.587v2.176h-4.587v3.982h5.3v2.174z" class="cls-2" transform="translate(-418.577 -224.09)"/>
                <path id="Path_29" d="M440.962 240.269a2.2 2.2 0 0 1-2.519-2.39v-6.07h-1.808v-1.939h1.808v-2.347l2.583-.775v3.122h3.166l-.754 1.939h-2.412v5.123c0 .8.3 1.163.969 1.163a3.314 3.314 0 0 0 1.7-.561l.689 1.637a6.282 6.282 0 0 1-3.422 1.098z" class="cls-2" transform="translate(-426 -224.811)"/>
                <path id="Path_30" d="M460.537 238.47v-5.942c0-1.14-.173-2.217-1.551-2.217a4.093 4.093 0 0 0-2.475 1.076v7.083h-2.584v-15.242h2.584v6.158a5.308 5.308 0 0 1 3.38-1.336c1.571 0 3.25.754 3.25 3.746v6.674z" class="cls-2" transform="translate(-433.775 -223.228)"/>
                <path id="Path_31" d="M475.707 227.015a1.562 1.562 0 1 1 1.615-1.571 1.59 1.59 0 0 1-1.615 1.571zm-1.292 11.755v-10.184H477v10.183z" class="cls-2" transform="translate(-442.852 -223.527)"/>
                <path id="Path_32" d="M488.478 242.626c-3.315 0-5.015-2.39-5.015-5.254a5.177 5.177 0 0 1 5.275-5.382 5.427 5.427 0 0 1 2.906.71l-.043 2.111a4.028 4.028 0 0 0-2.562-.839 3.033 3.033 0 0 0-2.993 3.271c0 1.744.947 3.294 2.971 3.294a4.6 4.6 0 0 0 2.411-.71l.646 1.7a6.772 6.772 0 0 1-3.596 1.099z" class="cls-2" transform="translate(-447.056 -227.168)"/>
                <path id="Path_33" d="M507.586 242.41l-.43-.9a4.217 4.217 0 0 1-2.949 1.12 3.171 3.171 0 0 1-3.338-3.273c0-2.11 1.658-3.25 4.263-3.336l1.808-.064v-.26c0-1.226-.86-1.721-1.937-1.721a5 5 0 0 0-2.626.753l-.84-1.615a6.71 6.71 0 0 1 3.982-1.119c2.52 0 4.048 1.034 4.048 3.7v4.026a10.222 10.222 0 0 0 .194 2.691zm-.646-4.672l-1.463.043c-1.4.043-2.024.517-2.024 1.378 0 .839.582 1.421 1.658 1.421a2.686 2.686 0 0 0 1.829-.646z" class="cls-2" transform="translate(-454.883 -227.168)"/>
                <path id="Path_34" d="M523.4 238.686a2.06 2.06 0 0 1-2.346-2.238v-13.22h2.583v12.078c0 .753.151 1.054.688 1.054a3.154 3.154 0 0 0 .755-.108l.322 1.916a4.061 4.061 0 0 1-2.002.518z" class="cls-2" transform="translate(-463.96 -223.228)"/>
                <path id="Path_35" d="M427.925 263.832h-3.876v12.012h-2.626v-12.012h-4.112v-2.174h11.238z" class="cls-2" transform="translate(-417.311 -240.508)"/>
                <path id="Path_36" d="M443.045 271.127a2.367 2.367 0 0 0-1.206-.322 2.991 2.991 0 0 0-1.959.9v7.212h-2.58v-10.179h2.174l.28 1.077a4.124 4.124 0 0 1 2.82-1.313 2.512 2.512 0 0 1 1.421.431z" class="cls-2" transform="translate(-426.298 -243.585)"/>
                <path id="Path_37" d="M457.435 278.921l-.43-.9a4.219 4.219 0 0 1-2.949 1.12 3.17 3.17 0 0 1-3.337-3.273c0-2.109 1.658-3.25 4.263-3.336l1.807-.064v-.268c0-1.226-.86-1.721-1.936-1.721a5.01 5.01 0 0 0-2.627.752l-.84-1.614a6.709 6.709 0 0 1 3.983-1.12c2.52 0 4.047 1.034 4.047 3.7v4.026a10.194 10.194 0 0 0 .194 2.691zm-.647-4.672l-1.463.043c-1.4.043-2.024.517-2.024 1.378 0 .839.582 1.421 1.658 1.421a2.681 2.681 0 0 0 1.829-.646z" class="cls-2" transform="translate(-432.332 -243.585)"/>
                <path id="Path_38" d="M474.831 275.2c-3.035 0-5.532-1.787-5.532-5.231a5.312 5.312 0 0 1 5.64-5.4 7.468 7.468 0 0 1 1.292.087v-4.916h2.584v14.638a8.575 8.575 0 0 1-3.984.822zm1.4-8.439a4.345 4.345 0 0 0-1.205-.15 3.006 3.006 0 0 0-3.144 3.228 3.039 3.039 0 0 0 3.186 3.23 4.654 4.654 0 0 0 1.163-.15z" class="cls-2" transform="translate(-440.687 -239.645)"/>
                <path id="Path_39" d="M491.663 263.526a1.561 1.561 0 1 1 1.615-1.571 1.59 1.59 0 0 1-1.615 1.571zm-1.292 11.754V265.1h2.584v10.183z" class="cls-2" transform="translate(-450.027 -239.944)"/>
                <path id="Path_40" d="M506.915 278.921v-5.985c0-1.055-.195-2.217-1.507-2.217a4.474 4.474 0 0 0-2.584 1.077v7.126h-2.584v-10.184h2.2l.28 1.1a5.769 5.769 0 0 1 3.573-1.336c1.55 0 3.209.926 3.209 3.661v6.759z" class="cls-2" transform="translate(-454.6 -243.585)"/>
                <path id="Path_41" d="M524.448 283.6c-3.057 0-4.844-1.378-4.844-3.013a2.743 2.743 0 0 1 1.873-2.434 1.415 1.415 0 0 1-.69-1.27 2.413 2.413 0 0 1 1.293-1.895 3.5 3.5 0 0 1-1.766-3.121 3.874 3.874 0 0 1 4.22-3.81 3.967 3.967 0 0 1 1.938.451.174.174 0 0 0 .258-.064 3.783 3.783 0 0 1 3.209-.8l-.538 1.916a2.516 2.516 0 0 0-1.442 0 3.472 3.472 0 0 1 .969 2.562c0 2.218-1.9 3.66-4.177 3.66a3.972 3.972 0 0 1-1.379-.194 1.414 1.414 0 0 0-.258.817c0 1.529 6.954.087 6.954 3.811-.001 1.769-1.788 3.384-5.62 3.384zm-1.764-4.757a1.628 1.628 0 0 0-.862 1.335c0 .86 1.076 1.594 2.842 1.594 1.486 0 2.584-.474 2.584-1.272-.001-1.312-3.424-1.183-4.565-1.657zm1.786-8.805a1.64 1.64 0 0 0-1.7 1.787 1.822 1.822 0 0 0 1.808 1.981 1.713 1.713 0 0 0 1.809-1.874 1.873 1.873 0 0 0-1.917-1.894z" class="cls-2" transform="translate(-463.307 -243.183)"/>
                <path id="Path_42" d="M420.91 312.355v-14.186h2.6v14.186z" class="cls-2" transform="translate(-418.929 -256.925)"/>
                <path id="Path_43" d="M436.348 315.432v-5.985c0-1.054-.194-2.217-1.508-2.217a4.476 4.476 0 0 0-2.583 1.077v7.126h-2.583v-10.184h2.195l.281 1.1a5.771 5.771 0 0 1 3.573-1.336c1.55 0 3.207.927 3.207 3.661v6.759z" class="cls-2" transform="translate(-422.87 -260.002)"/>
                <path id="Path_44" d="M451.568 300.037a1.561 1.561 0 1 1 1.615-1.571 1.59 1.59 0 0 1-1.615 1.571zm-1.292 11.755v-10.183h2.583v10.183z" class="cls-2" transform="translate(-431.998 -256.361)"/>
                <path id="Path_45" d="M462.868 313.291a2.2 2.2 0 0 1-2.519-2.39v-6.07h-1.809v-1.938h1.809v-2.347l2.583-.775v3.122h3.168l-.753 1.938h-2.411v5.123c0 .8.3 1.163.969 1.163a3.322 3.322 0 0 0 1.7-.561l.688 1.638a6.285 6.285 0 0 1-3.425 1.097z" class="cls-2" transform="translate(-435.85 -257.645)"/>
                <path id="Path_46" d="M476.017 300.037a1.561 1.561 0 1 1 1.615-1.571 1.59 1.59 0 0 1-1.615 1.571zm-1.292 11.755v-10.183h2.583v10.183z" class="cls-2" transform="translate(-442.991 -256.361)"/>
                <path id="Path_47" d="M489.668 315.432l-.43-.9a4.216 4.216 0 0 1-2.95 1.12 3.17 3.17 0 0 1-3.336-3.273c0-2.11 1.657-3.25 4.263-3.336l1.809-.064v-.26c0-1.226-.862-1.721-1.938-1.721a5 5 0 0 0-2.626.753l-.84-1.615a6.706 6.706 0 0 1 3.983-1.12c2.518 0 4.047 1.035 4.047 3.7v4.026a10.173 10.173 0 0 0 .194 2.691zm-.645-4.672l-1.465.043c-1.4.043-2.023.517-2.023 1.378 0 .839.581 1.422 1.657 1.422a2.69 2.69 0 0 0 1.831-.647z" class="cls-2" transform="translate(-446.826 -260.002)"/>
                <path id="Path_48" d="M505.861 313.291a2.205 2.205 0 0 1-2.52-2.39v-6.07h-1.807v-1.938h1.807v-2.347l2.584-.775v3.122h3.164l-.753 1.938h-2.411v5.123c0 .8.3 1.163.968 1.163a3.31 3.31 0 0 0 1.7-.561l.69 1.638a6.292 6.292 0 0 1-3.422 1.097z" class="cls-2" transform="translate(-455.181 -257.645)"/>
                <path id="Path_49" d="M519.791 300.037a1.561 1.561 0 1 1 1.615-1.571 1.59 1.59 0 0 1-1.615 1.571zm-1.29 11.755v-10.183h2.583v10.183z" class="cls-2" transform="translate(-462.675 -256.361)"/>
                <path id="Path_50" d="M532.383 315.69h-1.873l-4.176-10.247h2.648l2.54 6.932h.043l2.584-6.932h2.5z" class="cls-2" transform="translate(-466.333 -260.196)"/>
                <path id="Path_51" d="M548.593 311.019a2.7 2.7 0 0 0 2.864 2.561 5.311 5.311 0 0 0 2.648-.709l.624 1.657a6.52 6.52 0 0 1-3.7 1.12c-3.553 0-5.059-2.583-5.059-5.318 0-2.905 1.722-5.318 4.629-5.318 2.755 0 4.564 2.089 4.564 5.253v.754zm1.938-4.069a2.107 2.107 0 0 0-2 2.238h3.961a2.071 2.071 0 0 0-1.961-2.238z" class="cls-2" transform="translate(-475.16 -260.002)"/>
            </g>
        </g>
        <path id="Rectangle_5" d="M0 0H156V0.538H0z" class="cls-1" transform="translate(279.218 288.852)"/>
        <g id="Group_8" transform="translate(279.218 296.883)">
            <path id="Path_52" d="M282.375 367.163h-2.124v1.868h2.1v.885h-2.1v2.842h-1.033v-6.48h3.472z" class="cls-2" transform="translate(-279.218 -365.708)"/>
            <path id="Path_53" d="M289.924 370.046a2.5 2.5 0 0 1 .639 1.77 2.541 2.541 0 0 1-.659 1.8 2.225 2.225 0 0 1-1.612.639 2.158 2.158 0 0 1-1.554-.57 2.507 2.507 0 0 1-.7-1.839 2.557 2.557 0 0 1 .669-1.81 2.14 2.14 0 0 1 1.583-.649 2.161 2.161 0 0 1 1.634.659zm-2.842 1.78c0 .964.462 1.612 1.22 1.612.786 0 1.21-.668 1.21-1.612 0-.974-.452-1.613-1.229-1.613s-1.201.659-1.201 1.613z" class="cls-2" transform="translate(-282.285 -367.106)"/>
            <path id="Path_54" d="M298.434 370.469a1.13 1.13 0 0 0-.521-.128 1.519 1.519 0 0 0-.934.462v3.353h-1.023V369.5h.856l.128.512a1.824 1.824 0 0 1 1.3-.63 1.126 1.126 0 0 1 .589.177z" class="cls-2" transform="translate(-286.744 -367.106)"/>
            <path id="Path_55" d="M310.511 374.282h-.806l-1.082-3.363h-.03l-1.081 3.363h-.806l-1.642-4.681h1.042l1.042 3.324h.029l1.062-3.324h.816l1.081 3.333h.02l1.032-3.333h.984z" class="cls-2" transform="translate(-290.84 -367.202)"/>
            <path id="Path_56" d="M322.344 370.046a2.5 2.5 0 0 1 .64 1.77 2.541 2.541 0 0 1-.659 1.8 2.224 2.224 0 0 1-1.613.639 2.158 2.158 0 0 1-1.554-.57 2.506 2.506 0 0 1-.7-1.839 2.557 2.557 0 0 1 .669-1.81 2.3 2.3 0 0 1 3.215.01zm-2.842 1.78c0 .964.462 1.612 1.22 1.612.786 0 1.21-.668 1.21-1.612 0-.974-.452-1.613-1.23-1.613s-1.202.659-1.202 1.613z" class="cls-2" transform="translate(-296.863 -367.106)"/>
            <path id="Path_57" d="M330.854 370.469a1.13 1.13 0 0 0-.521-.128 1.52 1.52 0 0 0-.934.462v3.353h-1.023V369.5h.856l.128.512a1.825 1.825 0 0 1 1.3-.63 1.129 1.129 0 0 1 .59.177z" class="cls-2" transform="translate(-301.322 -367.106)"/>
            <path id="Path_58" d="M337.36 372.365l-1.77-2.252h-.01v2.252h-1.022V365.4h1.022v3.914h.01l1.564-1.6h1.23l-1.957 1.967 2.163 2.685z" class="cls-2" transform="translate(-304.101 -365.314)"/>
            <path id="Path_59" d="M343.254 372.072a1.317 1.317 0 0 0 1.4 1.337 2.357 2.357 0 0 0 1.17-.324l.265.669a2.866 2.866 0 0 1-1.622.5 2.226 2.226 0 0 1-2.267-2.454 2.162 2.162 0 0 1 2.035-2.409c1.239 0 2.006.954 2.006 2.4v.286zm.964-1.888a1.04 1.04 0 0 0-.974 1.13h1.937a1.035 1.035 0 0 0-.963-1.13z" class="cls-2" transform="translate(-307.538 -367.106)"/>
            <path id="Path_60" d="M353.739 370.469a1.132 1.132 0 0 0-.521-.128 1.521 1.521 0 0 0-.934.462v3.353h-1.022V369.5h.855l.128.512a1.825 1.825 0 0 1 1.3-.63 1.126 1.126 0 0 1 .59.177z" class="cls-2" transform="translate(-311.612 -367.106)"/>
            <path id="Path_61" d="M358.069 374.254a2.9 2.9 0 0 1-1.612-.413l.344-.757a2.217 2.217 0 0 0 1.219.384c.512 0 .856-.206.856-.56 0-.935-2.134-.58-2.134-2.193 0-.757.589-1.327 1.681-1.327a3.309 3.309 0 0 1 1.3.246v.865a3.052 3.052 0 0 0-1.259-.295c-.423 0-.728.138-.728.462 0 .835 2.173.59 2.173 2.163-.001 1.023-.866 1.425-1.84 1.425z" class="cls-2" transform="translate(-313.948 -367.106)"/>
            <path id="Path_62" d="M364.836 367.651l-.59-.275a3 3 0 0 0 .275-1.947l.984-.187a2.725 2.725 0 0 1-.669 2.409z" class="cls-2" transform="translate(-317.45 -365.242)"/>
            <path id="Path_63" d="M372.134 370.469a1.132 1.132 0 0 0-.521-.128 1.521 1.521 0 0 0-.934.462v3.353h-1.022V369.5h.855l.128.512a1.824 1.824 0 0 1 1.3-.63 1.126 1.126 0 0 1 .59.177z" class="cls-2" transform="translate(-319.883 -367.106)"/>
            <path id="Path_64" d="M376.93 366.453a.654.654 0 1 1-.649-.639.634.634 0 0 1 .649.639zm-1.16 6.1V367.9h1.023v4.652z" class="cls-2" transform="translate(-322.566 -365.499)"/>
            <path id="Path_65" d="M381.5 376.316c-1.4 0-2.193-.639-2.193-1.386a1.273 1.273 0 0 1 .855-1.121.662.662 0 0 1-.315-.59 1.128 1.128 0 0 1 .57-.865 1.584 1.584 0 0 1-.786-1.426 1.737 1.737 0 0 1 1.849-1.721 1.813 1.813 0 0 1 .876.187.09.09 0 0 0 .118-.01 1.643 1.643 0 0 1 1.406-.354l-.236.8a1.072 1.072 0 0 0-.659 0 1.661 1.661 0 0 1 .472 1.19 1.73 1.73 0 0 1-1.888 1.681 1.7 1.7 0 0 1-.61-.089.647.647 0 0 0-.167.433c0 .688 3.2.01 3.2 1.731-.009.793-.776 1.54-2.492 1.54zm-.8-2.232a.858.858 0 0 0-.472.689c0 .423.521.786 1.357.786.757 0 1.278-.255 1.278-.678-.001-.681-1.604-.6-2.163-.797zm-.078-3.156a.892.892 0 0 0 .894.964.855.855 0 0 0 .905-.934.906.906 0 0 0-.935-.944.839.839 0 0 0-.865.914z" class="cls-2" transform="translate(-324.221 -366.936)"/>
            <path id="Path_66" d="M391.931 372.365v-2.773c0-.541-.1-1.081-.747-1.081a2.031 2.031 0 0 0-1.229.58v3.275h-1.023V365.4h1.023v2.832a2.476 2.476 0 0 1 1.573-.64c.688 0 1.426.374 1.426 1.711v3.058z" class="cls-2" transform="translate(-328.55 -365.314)"/>
            <path id="Path_67" d="M399.46 373.234a.969.969 0 0 1-1.091-1.052v-2.9h-.806v-.8h.806v-1.052l1.023-.315v1.367h1.445l-.325.8h-1.12v2.537c0 .364.147.541.452.541a1.476 1.476 0 0 0 .786-.285l.285.669a2.609 2.609 0 0 1-1.455.49z" class="cls-2" transform="translate(-332.431 -366.085)"/>
            <path id="Path_68" d="M405.821 374.254a2.906 2.906 0 0 1-1.613-.413l.344-.757a2.217 2.217 0 0 0 1.219.384c.512 0 .856-.206.856-.56 0-.935-2.134-.58-2.134-2.193 0-.757.59-1.327 1.681-1.327a3.308 3.308 0 0 1 1.3.246v.865a3.05 3.05 0 0 0-1.259-.295c-.422 0-.728.138-.728.462 0 .835 2.173.59 2.173 2.163-.001 1.023-.866 1.425-1.839 1.425z" class="cls-2" transform="translate(-335.419 -367.106)"/>
            <path id="Path_69" d="M412.52 377.217a.654.654 0 1 1 .639-.659.634.634 0 0 1-.639.659z" class="cls-2" transform="translate(-338.873 -370.038)"/>
            <path id="Path_70" d="M424.447 367.163h-2.124v1.868h2.1v.885h-2.1v2.842h-1.033v-6.48h3.471z" class="cls-2" transform="translate(-343.1 -365.708)"/>
            <path id="Path_71" d="M432 370.046a2.5 2.5 0 0 1 .64 1.77 2.543 2.543 0 0 1-.659 1.8 2.225 2.225 0 0 1-1.613.639 2.158 2.158 0 0 1-1.554-.57 2.509 2.509 0 0 1-.7-1.839 2.56 2.56 0 0 1 .669-1.81 2.3 2.3 0 0 1 3.215.01zm-2.841 1.78c0 .964.462 1.612 1.22 1.612.786 0 1.209-.668 1.209-1.612 0-.974-.452-1.613-1.229-1.613s-1.205.659-1.205 1.613z" class="cls-2" transform="translate(-346.167 -367.106)"/>
            <path id="Path_72" d="M440.506 370.469a1.13 1.13 0 0 0-.521-.128 1.521 1.521 0 0 0-.934.462v3.353h-1.023V369.5h.855l.128.512a1.823 1.823 0 0 1 1.3-.63 1.128 1.128 0 0 1 .59.177z" class="cls-2" transform="translate(-350.626 -367.106)"/>
            <path id="Path_73" d="M449.546 372.463a3.023 3.023 0 0 1-1.446-.315V365.4h1.023v2.36a2.826 2.826 0 0 1 .944-.167 2.1 2.1 0 0 1 2.163 2.271 2.531 2.531 0 0 1-2.684 2.599zm.335-3.972a1.69 1.69 0 0 0-.757.167v2.861a1.7 1.7 0 0 0 .629.089 1.538 1.538 0 0 0 1.455-1.662 1.331 1.331 0 0 0-1.328-1.455z" class="cls-2" transform="translate(-355.155 -365.314)"/>
            <path id="Path_74" d="M457.96 372.072a1.318 1.318 0 0 0 1.4 1.337 2.358 2.358 0 0 0 1.17-.324l.265.669a2.867 2.867 0 0 1-1.622.5 2.227 2.227 0 0 1-2.262-2.458 2.162 2.162 0 0 1 2.036-2.409c1.239 0 2.006.954 2.006 2.4v.286zm.964-1.888a1.04 1.04 0 0 0-.974 1.13h1.938a1.036 1.036 0 0 0-.964-1.13z" class="cls-2" transform="translate(-359.115 -367.106)"/>
            <path id="Path_75" d="M467.1 373.234a.969.969 0 0 1-1.091-1.052v-2.9h-.809v-.8h.806v-1.052l1.022-.315v1.367h1.445l-.325.8h-1.121v2.537c0 .364.148.541.452.541a1.476 1.476 0 0 0 .786-.285l.285.669a2.607 2.607 0 0 1-1.45.49z" class="cls-2" transform="translate(-362.843 -366.085)"/>
            <path id="Path_76" d="M473.707 373.234a.969.969 0 0 1-1.091-1.052v-2.9h-.806v-.8h.806v-1.052l1.023-.315v1.367h1.445l-.325.8h-1.121v2.537c0 .364.147.541.452.541a1.477 1.477 0 0 0 .787-.285l.285.669a2.607 2.607 0 0 1-1.455.49z" class="cls-2" transform="translate(-365.816 -366.085)"/>
            <path id="Path_77" d="M479.828 372.072a1.318 1.318 0 0 0 1.4 1.337 2.356 2.356 0 0 0 1.17-.324l.266.669a2.868 2.868 0 0 1-1.622.5 2.227 2.227 0 0 1-2.262-2.458 2.162 2.162 0 0 1 2.035-2.409c1.24 0 2.007.954 2.007 2.4v.286zm.964-1.888a1.04 1.04 0 0 0-.974 1.13h1.937a1.035 1.035 0 0 0-.963-1.13z" class="cls-2" transform="translate(-368.948 -367.106)"/>
            <path id="Path_78" d="M490.313 370.469a1.131 1.131 0 0 0-.521-.128 1.524 1.524 0 0 0-.935.462v3.353h-1.022V369.5h.855l.128.512a1.825 1.825 0 0 1 1.3-.63 1.128 1.128 0 0 1 .59.177z" class="cls-2" transform="translate(-373.022 -367.106)"/>
            <path id="Path_79" d="M499.353 372.463a3.018 3.018 0 0 1-1.445-.315V365.4h1.022v2.36a2.828 2.828 0 0 1 .944-.167 2.1 2.1 0 0 1 2.163 2.271 2.532 2.532 0 0 1-2.684 2.599zm.335-3.972a1.693 1.693 0 0 0-.757.167v2.861a1.709 1.709 0 0 0 .63.089 1.538 1.538 0 0 0 1.455-1.662 1.331 1.331 0 0 0-1.329-1.455z" class="cls-2" transform="translate(-377.551 -365.314)"/>
            <path id="Path_80" d="M510.293 374.253l-.187-.462a2.278 2.278 0 0 1-1.456.56c-.619 0-1.523-.315-1.523-1.75v-3h1.022v2.931c0 .649.3.984.866.984a1.489 1.489 0 0 0 1.013-.462V369.6h1.022v3.137a5.889 5.889 0 0 0 .089 1.515z" class="cls-2" transform="translate(-381.696 -367.202)"/>
            <path id="Path_81" d="M517.368 374.254a2.907 2.907 0 0 1-1.613-.413l.344-.757a2.219 2.219 0 0 0 1.22.384c.511 0 .855-.206.855-.56 0-.935-2.134-.58-2.134-2.193 0-.757.59-1.327 1.681-1.327a3.313 3.313 0 0 1 1.3.246v.865a3.052 3.052 0 0 0-1.259-.295c-.423 0-.728.138-.728.462 0 .835 2.173.59 2.173 2.163-.001 1.023-.866 1.425-1.839 1.425z" class="cls-2" transform="translate(-385.576 -367.106)"/>
            <path id="Path_82" d="M524.96 366.453a.654.654 0 1 1-.649-.639.634.634 0 0 1 .649.639zm-1.16 6.1V367.9h1.023v4.652z" class="cls-2" transform="translate(-389.127 -365.499)"/>
            <path id="Path_83" d="M531.173 374.156v-2.783c0-.5-.1-1.072-.728-1.072a2.192 2.192 0 0 0-1.269.56v3.294h-1.022V369.5h.855l.118.522a2.632 2.632 0 0 1 1.652-.639c.689 0 1.416.452 1.416 1.662v3.108z" class="cls-2" transform="translate(-391.151 -367.106)"/>
            <path id="Path_84" d="M538.211 372.072a1.318 1.318 0 0 0 1.4 1.337 2.356 2.356 0 0 0 1.17-.324l.266.669a2.868 2.868 0 0 1-1.622.5 2.226 2.226 0 0 1-2.262-2.458 2.162 2.162 0 0 1 2.036-2.409c1.239 0 2.006.954 2.006 2.4v.286zm.964-1.888a1.04 1.04 0 0 0-.974 1.13h1.937a1.035 1.035 0 0 0-.963-1.13z" class="cls-2" transform="translate(-395.2 -367.106)"/>
            <path id="Path_85" d="M547.1 374.254a2.907 2.907 0 0 1-1.613-.413l.344-.757a2.216 2.216 0 0 0 1.219.384c.511 0 .856-.206.856-.56 0-.935-2.134-.58-2.134-2.193 0-.757.59-1.327 1.682-1.327a3.312 3.312 0 0 1 1.3.246v.865a3.053 3.053 0 0 0-1.259-.295c-.423 0-.728.138-.728.462 0 .835 2.173.59 2.173 2.163-.005 1.023-.87 1.425-1.84 1.425z" class="cls-2" transform="translate(-398.943 -367.106)"/>
            <path id="Path_86" d="M554.3 374.254a2.906 2.906 0 0 1-1.613-.413l.344-.757a2.217 2.217 0 0 0 1.219.384c.512 0 .856-.206.856-.56 0-.935-2.134-.58-2.134-2.193 0-.757.59-1.327 1.681-1.327a3.308 3.308 0 0 1 1.3.246v.865a3.05 3.05 0 0 0-1.259-.295c-.423 0-.728.138-.728.462 0 .835 2.173.59 2.173 2.163-.003 1.023-.868 1.425-1.839 1.425z" class="cls-2" transform="translate(-402.181 -367.106)"/>
            <path id="Path_87" d="M561 377.217a.654.654 0 1 1 .638-.659.634.634 0 0 1-.638.659z" class="cls-2" transform="translate(-405.635 -370.038)"/>
        </g>
    </g>
</svg>
