<svg xmlns="http://www.w3.org/2000/svg" width="200.453" height="119.568" viewBox="0 0 200.453 119.568">
    <defs>
        <style>
            .cls-1{fill:#fff}
        </style>
    </defs>
    <g id="ETI_Standard_Logo_WHITE" transform="translate(-279.21 -213.21)">
        <g id="Group_196" transform="translate(279.217 213.21)">
            <path id="Path_229" d="M322.053 213.21a42.833 42.833 0 1 0 42.826 42.833 42.835 42.835 0 0 0-42.826-42.833zm-10.869 59.932a17.693 17.693 0 0 1-3.748.4 17.5 17.5 0 1 1 0-35 17.244 17.244 0 0 1 3.748.41c.474.106.94.226 1.4.368a17.522 17.522 0 0 1 9.229 6.753l-8 4.618-.17.1a8.206 8.206 0 0 0-6.216-2.885 8.147 8.147 0 1 0 4.186 15.126 18.793 18.793 0 0 0-.431 10.112zm18.457 13.231a17.5 17.5 0 0 1-16.682-12.2c-.148-.46-.269-.926-.375-1.4a17.772 17.772 0 0 1-.445-3.911 17.456 17.456 0 0 1 1.669-7.468c.205-.438.431-.863.679-1.28l-.007-.007-1.245-.721-.014-.007-5.792-3.345 5.792-3.345.014-.007 1.245-.714.007-.007 8.1-4.674.007-.007 1.245-.714.014-.007 5.792-3.345v25.649l-5.792-3.345-.014-.007-1.245-.714a8.148 8.148 0 0 0-1.1 3.925c0 .049-.007.1-.007.148a8.147 8.147 0 1 0 12.107-7.114 18.87 18.87 0 0 0 8.96-4.689 17.5 17.5 0 0 1-12.913 29.305zm12.927-31.349q-.488.53-1.018 1.018a17.451 17.451 0 0 1-10.459 4.618v-9.427a8.15 8.15 0 0 0 6.7-8.012 8.147 8.147 0 1 0-16.293 0c0 .05.007.1.007.149a18.949 18.949 0 0 0-8.543-5.445 17.5 17.5 0 1 1 29.609 17.1z" class="cls-1" transform="translate(-279.22 -213.21)"/>
            <g id="Group_195" transform="translate(97.66 7.079)">
                <path id="Path_230" d="M420.13 243.371V225.14h10.155l-.912 2.793h-5.891v4.731h5.891v2.793h-5.891v5.12h6.8v2.793z" class="cls-1" transform="translate(-418.143 -223.782)"/>
                <path id="Path_231" d="M442.2 244.118c-2.327 0-3.239-1.3-3.239-3.069v-7.8h-2.331v-2.489h2.327v-3.013l3.317-1v4.01h4.066l-.969 2.489h-3.1v6.584c0 1.025.389 1.492 1.245 1.492a4.264 4.264 0 0 0 2.185-.721l.884 2.1a7.982 7.982 0 0 1-4.385 1.417z" class="cls-1" transform="translate(-422.975 -224.254)"/>
                <path id="Path_232" d="M462.423 242.811v-7.637c0-1.464-.219-2.85-1.994-2.85a5.255 5.255 0 0 0-3.182 1.386v9.1h-3.317v-19.58h3.317v7.913a6.82 6.82 0 0 1 4.342-1.718c2.015 0 4.179.969 4.179 4.816v8.578h-3.345z" class="cls-1" transform="translate(-428.041 -223.223)"/>
                <path id="Path_233" d="M476.164 227.907a2.009 2.009 0 1 1 2.072-2.022 2.047 2.047 0 0 1-2.072 2.022zM474.5 243v-13.078h3.317V243z" class="cls-1" transform="translate(-433.953 -223.416)"/>
                <path id="Path_234" d="M489.912 245.65c-4.257 0-6.442-3.069-6.442-6.753a6.654 6.654 0 0 1 6.775-6.916 7 7 0 0 1 3.734.912l-.057 2.716a5.169 5.169 0 0 0-3.3-1.082 3.9 3.9 0 0 0-3.847 4.2c0 2.242 1.216 4.229 3.819 4.229a5.935 5.935 0 0 0 3.1-.912l.827 2.185a8.526 8.526 0 0 1-4.609 1.421z" class="cls-1" transform="translate(-436.691 -225.785)"/>
                <path id="Path_235" d="M509.5 245.377l-.552-1.16a5.407 5.407 0 0 1-3.79 1.436 4.074 4.074 0 0 1-4.285-4.208c0-2.708 2.129-4.179 5.481-4.285l2.32-.085v-.332c0-1.577-1.1-2.213-2.489-2.213a6.378 6.378 0 0 0-3.373.969l-1.082-2.072a8.633 8.633 0 0 1 5.12-1.436c3.239 0 5.2 1.329 5.2 4.759v5.169a13.252 13.252 0 0 0 .247 3.458zm-.827-6l-1.881.057c-1.8.057-2.6.665-2.6 1.768 0 1.075.75 1.824 2.129 1.824a3.466 3.466 0 0 0 2.348-.827v-2.822z" class="cls-1" transform="translate(-441.786 -225.788)"/>
                <path id="Path_236" d="M524.073 243.084c-2.185 0-3.013-1.245-3.013-2.878V223.22h3.317v15.522c0 .969.191 1.358.884 1.358a4.039 4.039 0 0 0 .969-.141l.417 2.461a5.175 5.175 0 0 1-2.574.664z" class="cls-1" transform="translate(-447.699 -223.22)"/>
                <path id="Path_237" d="M430.954 264.453h-4.978v15.437H422.6v-15.437h-5.28v-2.793h14.44z" class="cls-1" transform="translate(-417.32 -234.477)"/>
                <path id="Path_238" d="M444.683 271.87a3.022 3.022 0 0 0-1.549-.417 3.853 3.853 0 0 0-2.518 1.16v9.264H437.3v-13.083h2.793l.361 1.386a5.3 5.3 0 0 1 3.621-1.69 3.208 3.208 0 0 1 1.824.552z" class="cls-1" transform="translate(-423.171 -236.477)"/>
                <path id="Path_239" d="M459.347 281.887l-.552-1.16a5.407 5.407 0 0 1-3.79 1.436 4.074 4.074 0 0 1-4.285-4.208c0-2.708 2.129-4.179 5.481-4.285l2.32-.085v-.332c0-1.577-1.1-2.213-2.489-2.213a6.359 6.359 0 0 0-3.373.969l-1.082-2.072a8.633 8.633 0 0 1 5.12-1.436c3.239 0 5.2 1.329 5.2 4.759v5.169a13.249 13.249 0 0 0 .247 3.458zm-.827-6l-1.881.057c-1.8.057-2.6.665-2.6 1.768 0 1.082.75 1.824 2.129 1.824a3.466 3.466 0 0 0 2.348-.827v-2.819z" class="cls-1" transform="translate(-427.101 -236.48)"/>
                <path id="Path_240" d="M476.407 279.607c-3.9 0-7.107-2.3-7.107-6.718 0-4.066 3.013-6.944 7.248-6.944a9.425 9.425 0 0 1 1.662.113v-6.308h3.324v18.811a11.2 11.2 0 0 1-5.127 1.046zm1.8-10.848a5.5 5.5 0 0 0-1.549-.191 3.859 3.859 0 0 0-4.038 4.144 3.908 3.908 0 0 0 4.095 4.151 6.122 6.122 0 0 0 1.492-.191z" class="cls-1" transform="translate(-432.541 -233.917)"/>
                <path id="Path_241" d="M492.124 264.42a2.006 2.006 0 1 1 2.076-2.02 2.045 2.045 0 0 1-2.076 2.02zm-1.662 15.1v-13.085h3.317v13.083z" class="cls-1" transform="translate(-438.627 -234.11)"/>
                <path id="Path_242" d="M508.815 281.89v-7.69c0-1.358-.247-2.85-1.938-2.85a5.753 5.753 0 0 0-3.324 1.386v9.164h-3.323v-13.086h2.822l.361 1.414A7.4 7.4 0 0 1 508 268.51c1.994 0 4.123 1.188 4.123 4.7v8.69h-3.31z" class="cls-1" transform="translate(-441.599 -236.482)"/>
                <path id="Path_243" d="M525.823 288.16c-3.925 0-6.223-1.768-6.223-3.875a3.521 3.521 0 0 1 2.4-3.126 1.815 1.815 0 0 1-.884-1.634 3.1 3.1 0 0 1 1.662-2.433 4.493 4.493 0 0 1-2.27-4.01c0-2.489 1.881-4.894 5.424-4.894a5.068 5.068 0 0 1 2.489.58.225.225 0 0 0 .332-.085c.778-.721 1.938-1.245 4.123-1.025l-.693 2.461a3.226 3.226 0 0 0-1.853 0 4.472 4.472 0 0 1 1.245 3.3c0 2.85-2.433 4.7-5.367 4.7a5.118 5.118 0 0 1-1.768-.247 1.842 1.842 0 0 0-.332 1.054c0 1.966 8.939.113 8.939 4.894.003 2.261-2.295 4.34-7.224 4.34zm-2.263-6.117a2.084 2.084 0 0 0-1.11 1.711c0 1.1 1.386 2.051 3.649 2.051 1.909 0 3.324-.608 3.324-1.634 0-1.683-4.399-1.52-5.863-2.128zm2.3-11.315a2.106 2.106 0 0 0-2.185 2.3 2.341 2.341 0 0 0 2.325 2.544 2.206 2.206 0 0 0 2.327-2.411 2.416 2.416 0 0 0-2.469-2.433z" class="cls-1" transform="translate(-447.271 -236.218)"/>
                <path id="Path_244" d="M420.91 316.391V298.16h3.345v18.231z" class="cls-1" transform="translate(-418.371 -245.165)"/>
                <path id="Path_245" d="M438.251 318.4v-7.687c0-1.351-.247-2.85-1.938-2.85a5.715 5.715 0 0 0-3.313 1.386v9.158h-3.32v-13.083h2.82l.361 1.414a7.4 7.4 0 0 1 4.589-1.718c1.994 0 4.123 1.188 4.123 4.7v8.684h-3.324z" class="cls-1" transform="translate(-420.939 -247.174)"/>
                <path id="Path_246" d="M452.021 300.93a2.006 2.006 0 1 1 2.072-2.015 2.022 2.022 0 0 1-2.072 2.015zm-1.662 15.1v-13.085h3.317v13.083z" class="cls-1" transform="translate(-426.881 -244.802)"/>
                <path id="Path_247" d="M464.1 317.148c-2.327 0-3.239-1.3-3.239-3.069v-7.8h-2.331v-2.489h2.327v-3.013l3.317-1v4.01h4.066l-.969 2.489h-3.1v6.584c0 1.025.389 1.492 1.245 1.492a4.264 4.264 0 0 0 2.185-.721l.884 2.107a8.068 8.068 0 0 1-4.385 1.41z" class="cls-1" transform="translate(-429.388 -245.639)"/>
                <path id="Path_248" d="M476.471 300.93a2.006 2.006 0 1 1 2.072-2.015 2.022 2.022 0 0 1-2.072 2.015zm-1.662 15.1v-13.085h3.317v13.083z" class="cls-1" transform="translate(-434.041 -244.802)"/>
                <path id="Path_249" d="M491.587 318.4l-.552-1.16a5.394 5.394 0 0 1-3.79 1.436 4.074 4.074 0 0 1-4.285-4.208c0-2.708 2.129-4.179 5.481-4.285l2.327-.085v-.332c0-1.577-1.11-2.213-2.489-2.213a6.379 6.379 0 0 0-3.373.969l-1.082-2.072a8.62 8.62 0 0 1 5.12-1.436c3.239 0 5.2 1.329 5.2 4.759v5.169a13.249 13.249 0 0 0 .247 3.458zm-.834-6l-1.881.057c-1.8.057-2.6.665-2.6 1.768 0 1.075.75 1.824 2.129 1.824a3.466 3.466 0 0 0 2.355-.834z" class="cls-1" transform="translate(-436.542 -247.171)"/>
                <path id="Path_250" d="M507.1 317.148c-2.327 0-3.239-1.3-3.239-3.069v-7.8h-2.32v-2.489h2.32v-3.013l3.324-1v4.01h4.066l-.969 2.489h-3.1v6.584c0 1.025.389 1.492 1.245 1.492a4.264 4.264 0 0 0 2.185-.721l.884 2.107a8.144 8.144 0 0 1-4.396 1.41z" class="cls-1" transform="translate(-441.982 -245.639)"/>
                <path id="Path_251" d="M520.244 300.93a2.006 2.006 0 1 1 2.072-2.015 2.016 2.016 0 0 1-2.072 2.015zm-1.655 15.1v-13.085h3.317v13.083z" class="cls-1" transform="translate(-446.861 -244.802)"/>
                <path id="Path_252" d="M534.112 318.607h-2.4l-5.372-13.167h3.4l3.26 8.91h.057l3.324-8.91h3.211z" class="cls-1" transform="translate(-449.245 -247.297)"/>
                <path id="Path_253" d="M549.34 312.732a3.464 3.464 0 0 0 3.677 3.288 6.818 6.818 0 0 0 3.4-.912l.8 2.129a8.367 8.367 0 0 1-4.759 1.436c-4.561 0-6.5-3.317-6.5-6.831 0-3.734 2.213-6.831 5.947-6.831 3.543 0 5.862 2.687 5.862 6.753v.969zm2.489-5.233a2.707 2.707 0 0 0-2.574 2.878h5.092c-.057-1.407-.827-2.877-2.517-2.877z" class="cls-1" transform="translate(-454.99 -247.171)"/>
            </g>
        </g>
        <path id="Rectangle_403" d="M0 0H200.446V0.693H0z" class="cls-1" transform="translate(279.217 310.403)"/>
        <g id="Group_197" transform="translate(279.21 320.721)">
            <path id="Path_254" d="M283.269 367.419h-2.73v2.4h2.7v1.139h-2.7v3.642h-1.329v-8.32h4.462z" class="cls-1" transform="translate(-279.21 -365.545)"/>
            <path id="Path_255" d="M291.033 370.229a3.216 3.216 0 0 1 .82 2.277 3.271 3.271 0 0 1-.849 2.312 2.857 2.857 0 0 1-2.072.82 2.759 2.759 0 0 1-1.994-.735 3.227 3.227 0 0 1-.9-2.362 3.291 3.291 0 0 1 .863-2.327 2.753 2.753 0 0 1 2.037-.834 2.836 2.836 0 0 1 2.095.849zm-3.656 2.291c0 1.238.594 2.072 1.57 2.072 1.011 0 1.556-.856 1.556-2.072 0-1.252-.58-2.072-1.577-2.072-1.019 0-1.549.841-1.549 2.072z" class="cls-1" transform="translate(-281.21 -366.452)"/>
            <path id="Path_256" d="M299.139 370.776a1.447 1.447 0 0 0-.672-.163 1.963 1.963 0 0 0-1.2.594v4.307h-1.317v-5.976h1.1l.163.658a2.334 2.334 0 0 1 1.669-.806 1.446 1.446 0 0 1 .757.226z" class="cls-1" transform="translate(-284.112 -366.455)"/>
            <path id="Path_257" d="M312.064 375.618h-1.032l-1.393-4.321h-.039l-1.393 4.321h-1.032l-2.105-6.018h1.337l1.337 4.271h.035l1.365-4.271h1.047l1.393 4.285h.028l1.329-4.285h1.266z" class="cls-1" transform="translate(-286.783 -366.517)"/>
            <path id="Path_258" d="M323.453 370.229a3.216 3.216 0 0 1 .82 2.277 3.271 3.271 0 0 1-.849 2.312 2.857 2.857 0 0 1-2.072.82 2.759 2.759 0 0 1-1.994-.735 3.227 3.227 0 0 1-.9-2.362 3.291 3.291 0 0 1 .863-2.327 2.753 2.753 0 0 1 2.037-.834 2.836 2.836 0 0 1 2.095.849zm-3.653 2.291c0 1.238.594 2.072 1.57 2.072 1.011 0 1.556-.856 1.556-2.072 0-1.252-.58-2.072-1.577-2.072s-1.549.841-1.549 2.072z" class="cls-1" transform="translate(-290.704 -366.452)"/>
            <path id="Path_259" d="M331.559 370.776a1.447 1.447 0 0 0-.672-.163 1.964 1.964 0 0 0-1.2.594v4.307h-1.317v-5.976h1.1l.163.658a2.334 2.334 0 0 1 1.669-.806 1.446 1.446 0 0 1 .757.226z" class="cls-1" transform="translate(-293.606 -366.455)"/>
            <path id="Path_260" d="M338.157 374.346l-2.277-2.892h-.014v2.892h-1.316V365.4h1.315v5.028h.014l2.008-2.058h1.577l-2.518 2.525 2.779 3.451z" class="cls-1" transform="translate(-295.415 -365.287)"/>
            <path id="Path_261" d="M343.551 372.838a1.7 1.7 0 0 0 1.8 1.718 3.022 3.022 0 0 0 1.506-.417l.339.856a3.682 3.682 0 0 1-2.086.644 2.862 2.862 0 0 1-2.906-3.161c0-1.7 1-3.1 2.617-3.1 1.591 0 2.581 1.223 2.581 3.083v.368h-3.847zm1.238-2.433a1.335 1.335 0 0 0-1.252 1.45h2.489a1.328 1.328 0 0 0-1.238-1.45z" class="cls-1" transform="translate(-297.656 -366.452)"/>
            <path id="Path_262" d="M354.439 370.776a1.447 1.447 0 0 0-.672-.163 1.963 1.963 0 0 0-1.2.594v4.307h-1.317v-5.976h1.1l.163.658a2.334 2.334 0 0 1 1.669-.806 1.446 1.446 0 0 1 .757.226z" class="cls-1" transform="translate(-300.306 -366.455)"/>
            <path id="Path_263" d="M358.532 375.641a3.731 3.731 0 0 1-2.072-.53l.446-.976a2.817 2.817 0 0 0 1.57.495c.658 0 1.1-.269 1.1-.721 0-1.2-2.744-.742-2.744-2.815 0-.976.757-1.7 2.164-1.7a4.267 4.267 0 0 1 1.669.318v1.11a3.874 3.874 0 0 0-1.619-.382c-.545 0-.933.177-.933.594 0 1.075 2.793.757 2.793 2.779-.012 1.312-1.122 1.828-2.374 1.828z" class="cls-1" transform="translate(-301.831 -366.455)"/>
            <path id="Path_264" d="M365.007 368.337l-.757-.354a3.831 3.831 0 0 0 .354-2.5l1.266-.24a3.52 3.52 0 0 1-.863 3.094z" class="cls-1" transform="translate(-304.113 -365.24)"/>
            <path id="Path_265" d="M372.839 370.776a1.447 1.447 0 0 0-.672-.163 1.963 1.963 0 0 0-1.2.594v4.307h-1.317v-5.976h1.1l.163.658a2.334 2.334 0 0 1 1.669-.806 1.446 1.446 0 0 1 .757.226z" class="cls-1" transform="translate(-305.694 -366.455)"/>
            <path id="Path_266" d="M377.3 366.63a.842.842 0 1 1-.834-.82.815.815 0 0 1 .834.82zm-1.492 7.835v-5.975h1.315v5.976z" class="cls-1" transform="translate(-307.442 -365.407)"/>
            <path id="Path_267" d="M382.125 378.4c-1.8 0-2.815-.82-2.815-1.782a1.644 1.644 0 0 1 1.1-1.443.85.85 0 0 1-.4-.757 1.441 1.441 0 0 1 .735-1.11 2.034 2.034 0 0 1-1.011-1.832 2.236 2.236 0 0 1 2.376-2.213 2.35 2.35 0 0 1 1.124.24.109.109 0 0 0 .148-.014 2.1 2.1 0 0 1 1.8-.453l-.3 1.025a1.385 1.385 0 0 0-.849 0 2.121 2.121 0 0 1 .608 1.527 2.225 2.225 0 0 1-2.426 2.164 2.265 2.265 0 0 1-.785-.113.823.823 0 0 0-.212.559c0 .884 4.109.014 4.109 2.221-.006 1.021-.996 1.981-3.202 1.981zm-1.025-2.87a1.1 1.1 0 0 0-.608.884c0 .544.672 1.011 1.747 1.011.976 0 1.641-.325 1.641-.87-.002-.869-2.06-.77-2.78-1.025zm-.1-4.052a1.145 1.145 0 0 0 1.153 1.238 1.1 1.1 0 0 0 1.16-1.2 1.166 1.166 0 0 0-1.2-1.216 1.082 1.082 0 0 0-1.113 1.178z" class="cls-1" transform="translate(-308.523 -366.344)"/>
            <path id="Path_268" d="M392.784 374.346v-3.564c0-.693-.127-1.393-.962-1.393a2.616 2.616 0 0 0-1.577.743v4.208h-1.315v-8.94h1.315v3.642a3.2 3.2 0 0 1 2.022-.82c.884 0 1.832.481 1.832 2.2v3.932h-1.315z" class="cls-1" transform="translate(-311.34 -365.287)"/>
            <path id="Path_269" d="M400 374.977a1.243 1.243 0 0 1-1.4-1.351V369.9h-1.03v-1.025h1.03v-1.351l1.315-.4v1.754h1.86l-.417 1.025h-1.443v3.26c0 .467.191.693.58.693a1.928 1.928 0 0 0 1.011-.368l.368.863a3.377 3.377 0 0 1-1.874.626z" class="cls-1" transform="translate(-313.87 -365.791)"/>
            <path id="Path_270" d="M406.282 375.641a3.731 3.731 0 0 1-2.072-.53l.446-.976a2.817 2.817 0 0 0 1.57.495c.658 0 1.1-.269 1.1-.721 0-1.2-2.744-.742-2.744-2.815 0-.976.757-1.7 2.164-1.7a4.267 4.267 0 0 1 1.669.318v1.11a3.874 3.874 0 0 0-1.619-.382c-.545 0-.933.177-.933.594 0 1.075 2.793.757 2.793 2.779-.012 1.312-1.122 1.828-2.374 1.828z" class="cls-1" transform="translate(-315.814 -366.455)"/>
            <path id="Path_271" d="M412.7 377.583a.842.842 0 1 1 .82-.849.816.816 0 0 1-.82.849z" class="cls-1" transform="translate(-318.063 -368.362)"/>
            <path id="Path_272" d="M425.349 367.419h-2.73v2.4h2.7v1.139h-2.7v3.642h-1.329v-8.32h4.462z" class="cls-1" transform="translate(-320.816 -365.545)"/>
            <path id="Path_273" d="M433.1 370.229a3.216 3.216 0 0 1 .82 2.277 3.271 3.271 0 0 1-.849 2.312 2.857 2.857 0 0 1-2.072.82 2.759 2.759 0 0 1-1.994-.735 3.227 3.227 0 0 1-.9-2.362 3.291 3.291 0 0 1 .863-2.327 2.753 2.753 0 0 1 2.037-.834 2.825 2.825 0 0 1 2.095.849zm-3.649 2.291c0 1.238.594 2.072 1.57 2.072 1.011 0 1.556-.856 1.556-2.072 0-1.252-.58-2.072-1.577-2.072-1.016 0-1.546.841-1.546 2.072z" class="cls-1" transform="translate(-322.813 -366.452)"/>
            <path id="Path_274" d="M441.209 370.776a1.447 1.447 0 0 0-.672-.163 1.963 1.963 0 0 0-1.2.594v4.307h-1.317v-5.976h1.1l.163.658a2.334 2.334 0 0 1 1.669-.806 1.447 1.447 0 0 1 .757.226z" class="cls-1" transform="translate(-325.715 -366.455)"/>
            <path id="Path_275" d="M449.96 374.473a3.946 3.946 0 0 1-1.86-.4V365.4h1.315v3.034a3.619 3.619 0 0 1 1.216-.212 2.7 2.7 0 0 1 2.779 2.921 3.257 3.257 0 0 1-3.45 3.33zm.424-5.106a2.247 2.247 0 0 0-.976.212v3.677a2.114 2.114 0 0 0 .806.113 1.973 1.973 0 0 0 1.867-2.136 1.7 1.7 0 0 0-1.697-1.866z" class="cls-1" transform="translate(-328.667 -365.287)"/>
            <path id="Path_276" d="M458.261 372.838a1.7 1.7 0 0 0 1.8 1.718 3.022 3.022 0 0 0 1.506-.417l.339.856a3.682 3.682 0 0 1-2.086.644 2.862 2.862 0 0 1-2.906-3.161c0-1.7 1-3.1 2.617-3.1 1.591 0 2.574 1.223 2.574 3.083v.368h-3.84zm1.238-2.433a1.335 1.335 0 0 0-1.252 1.45h2.489a1.333 1.333 0 0 0-1.236-1.45z" class="cls-1" transform="translate(-331.246 -366.452)"/>
            <path id="Path_277" d="M467.643 374.977a1.243 1.243 0 0 1-1.4-1.351V369.9h-1.033v-1.025h1.032v-1.351l1.315-.4v1.754h1.86L469 369.9h-1.443v3.26c0 .467.191.693.58.693a1.928 1.928 0 0 0 1.011-.368l.368.863a3.377 3.377 0 0 1-1.873.629z" class="cls-1" transform="translate(-333.677 -365.791)"/>
            <path id="Path_278" d="M474.253 374.977a1.243 1.243 0 0 1-1.4-1.351V369.9h-1.033v-1.025h1.032v-1.351l1.315-.4v1.754h1.86l-.417 1.025h-1.443v3.26c0 .467.191.693.58.693a1.928 1.928 0 0 0 1.011-.368l.368.863a3.378 3.378 0 0 1-1.873.626z" class="cls-1" transform="translate(-335.613 -365.791)"/>
            <path id="Path_279" d="M480.131 372.838a1.7 1.7 0 0 0 1.8 1.718 3.022 3.022 0 0 0 1.506-.417l.339.856a3.682 3.682 0 0 1-2.086.644 2.862 2.862 0 0 1-2.906-3.161c0-1.7 1-3.1 2.617-3.1 1.591 0 2.581 1.223 2.581 3.083v.368h-3.847zm1.238-2.433a1.335 1.335 0 0 0-1.252 1.45h2.489a1.333 1.333 0 0 0-1.238-1.45z" class="cls-1" transform="translate(-337.651 -366.452)"/>
            <path id="Path_280" d="M491.019 370.776a1.447 1.447 0 0 0-.672-.163 1.963 1.963 0 0 0-1.2.594v4.307h-1.317v-5.976h1.1l.163.658a2.334 2.334 0 0 1 1.669-.806 1.447 1.447 0 0 1 .757.226z" class="cls-1" transform="translate(-340.301 -366.455)"/>
            <path id="Path_281" d="M499.76 374.473a3.946 3.946 0 0 1-1.86-.4V365.4h1.315v3.034a3.619 3.619 0 0 1 1.216-.212 2.7 2.7 0 0 1 2.779 2.921 3.249 3.249 0 0 1-3.45 3.33zm.431-5.106a2.247 2.247 0 0 0-.976.212v3.677a2.114 2.114 0 0 0 .806.113 1.973 1.973 0 0 0 1.867-2.136 1.7 1.7 0 0 0-1.697-1.866z" class="cls-1" transform="translate(-343.25 -365.287)"/>
            <path id="Path_282" d="M511.2 375.576l-.24-.594a2.928 2.928 0 0 1-1.867.721c-.8 0-1.959-.4-1.959-2.249V369.6h1.315v3.762c0 .834.382 1.266 1.11 1.266a1.911 1.911 0 0 0 1.3-.594V369.6h1.315v4.031a7.737 7.737 0 0 0 .113 1.945H511.2z" class="cls-1" transform="translate(-345.953 -366.517)"/>
            <path id="Path_283" d="M517.822 375.641a3.731 3.731 0 0 1-2.072-.53l.445-.976a2.817 2.817 0 0 0 1.57.495c.658 0 1.1-.269 1.1-.721 0-1.2-2.744-.742-2.744-2.815 0-.976.757-1.7 2.164-1.7a4.267 4.267 0 0 1 1.669.318v1.11a3.874 3.874 0 0 0-1.619-.382c-.544 0-.933.177-.933.594 0 1.075 2.793.757 2.793 2.779-.004 1.312-1.121 1.828-2.373 1.828z" class="cls-1" transform="translate(-348.477 -366.455)"/>
            <path id="Path_284" d="M525.333 366.63a.842.842 0 1 1-.834-.82.815.815 0 0 1 .834.82zm-1.492 7.835v-5.975h1.315v5.976z" class="cls-1" transform="translate(-350.79 -365.407)"/>
            <path id="Path_285" d="M532.032 375.517v-3.571c0-.644-.127-1.379-.933-1.379a2.833 2.833 0 0 0-1.634.721v4.236h-1.315v-5.976h1.1l.149.672a3.362 3.362 0 0 1 2.122-.82c.884 0 1.817.58 1.817 2.136v4h-1.3z" class="cls-1" transform="translate(-352.108 -366.458)"/>
            <path id="Path_286" d="M538.511 372.838a1.7 1.7 0 0 0 1.8 1.718 3.022 3.022 0 0 0 1.506-.417l.339.856a3.682 3.682 0 0 1-2.086.644 2.862 2.862 0 0 1-2.906-3.161c0-1.7 1-3.1 2.617-3.1 1.591 0 2.574 1.223 2.574 3.083v.368h-3.84zm1.238-2.433a1.335 1.335 0 0 0-1.252 1.45h2.489a1.328 1.328 0 0 0-1.238-1.45z" class="cls-1" transform="translate(-354.746 -366.452)"/>
            <path id="Path_287" d="M547.552 375.641a3.731 3.731 0 0 1-2.072-.53l.446-.976a2.817 2.817 0 0 0 1.57.495c.658 0 1.1-.269 1.1-.721 0-1.2-2.744-.742-2.744-2.815 0-.976.757-1.7 2.164-1.7a4.267 4.267 0 0 1 1.669.318v1.11a3.874 3.874 0 0 0-1.619-.382c-.544 0-.933.177-.933.594 0 1.075 2.793.757 2.793 2.779-.005 1.312-1.126 1.828-2.374 1.828z" class="cls-1" transform="translate(-357.183 -366.455)"/>
            <path id="Path_288" d="M554.752 375.641a3.731 3.731 0 0 1-2.072-.53l.445-.976a2.817 2.817 0 0 0 1.57.495c.658 0 1.1-.269 1.1-.721 0-1.2-2.744-.742-2.744-2.815 0-.976.757-1.7 2.164-1.7a4.267 4.267 0 0 1 1.669.318v1.11a3.874 3.874 0 0 0-1.619-.382c-.544 0-.933.177-.933.594 0 1.075 2.793.757 2.793 2.779-.004 1.312-1.125 1.828-2.373 1.828z" class="cls-1" transform="translate(-359.291 -366.455)"/>
            <path id="Path_289" d="M561.176 377.583a.842.842 0 1 1 .82-.849.816.816 0 0 1-.82.849z" class="cls-1" transform="translate(-361.543 -368.362)"/>
        </g>
    </g>
</svg>
