<svg id="Laag_1" data-name="Laag 1" xmlns="http://www.w3.org/2000/svg" viewBox="0 0 60.65 83.85"><defs><style>.cls-1{fill:#fff;}</style></defs><path class="cls-1" d="M71.55,52.38h0q0-.59,0-1.17c0-.4,0-.79,0-1.18h0A43,43,0,0,0,37,9c-.87.23-1.73.49-2.58.77A41.86,41.86,0,0,1,63.37,28,36.84,36.84,0,0,0,21.64,16.62c-1.09.84-2.14,1.74-3.14,2.68A35.72,35.72,0,0,1,65.11,32.5a30.33,30.33,0,1,0,0,37.41A35.77,35.77,0,0,1,20.92,84.24c1.06.85,2.16,1.66,3.3,2.41A36.82,36.82,0,0,0,63.37,74.39a41.94,41.94,0,0,1-26.8,17.87c.85.23,1.72.45,2.59.63A43.06,43.06,0,0,0,71.55,52.38ZM70.4,51.21A13.87,13.87,0,1,1,56.53,37.33,13.89,13.89,0,0,1,70.4,51.21ZM56.53,36.15A15.06,15.06,0,1,0,68.21,60.68a21.65,21.65,0,1,1,0-19A15,15,0,0,0,56.53,36.15ZM41.26,80.35a29.15,29.15,0,1,1,25.65-43,22.84,22.84,0,1,0,0,27.65A29.18,29.18,0,0,1,41.26,80.35Z" transform="translate(-10.93 -9.04)"/></svg>