<?xml version="1.0" encoding="UTF-8"?>
<!DOCTYPE svg PUBLIC "-//W3C//DTD SVG 1.1//EN" "http://www.w3.org/Graphics/SVG/1.1/DTD/svg11.dtd">
<svg xmlns="http://www.w3.org/2000/svg" xmlns:xlink="http://www.w3.org/1999/xlink">
	<defs>
		<path id="calendar-a" d="M0 0h384v338H0z"/>
	</defs>
<symbol id="acc-arrow" viewBox="0 0 21.8 25.3">
	<path d="M0 0v25.3l21.8-11.9L0 0z"/>
</symbol>
<symbol id="at" viewBox="0 0 240 240">
	<path d="M120 0C53.7 0 0 53.7 0 120s53.7 120 120 120 120-53.7 120-120C239.9 53.8 186.2.1 120 0z"/>
	<path fill="#FFF" d="M158.7 79.6C148.9 70.5 136.6 66 122 66c-15.4 0-28.5 5.2-39.3 15.5-10.8 10.3-16.2 23.2-16.2 38.5 0 14.7 5.2 27.4 15.4 38 10.3 10.6 24.2 15.9 41.7 15.9 10.5 0 20.9-2.2 31-6.5 3.3-1.4 4.9-5.2 3.6-8.5-1.4-3.4-5.3-5-8.7-3.6-8.8 3.8-17.4 5.7-25.9 5.7-13.4 0-23.8-4.1-31.1-12.2-7.3-8.1-11-17.7-11-28.7 0-11.9 3.9-21.9 11.8-29.9 7.8-8 17.5-12 29-12 10.6 0 19.5 3.3 26.8 9.8s10.9 14.8 10.9 24.8c0 6.8-1.7 12.5-5 17s-6.8 6.8-10.4 6.8c-1.9 0-2.9-1-2.9-3.1 0-1.7.1-3.7.4-6l4.1-33.5H132l-.9 3.3c-3.6-2.9-7.5-4.4-11.8-4.4-6.8 0-12.6 2.7-17.4 8.1-4.8 5.4-7.2 12.4-7.2 20.9 0 8.3 2.1 15 6.4 20.1 4.3 5.1 9.4 7.6 15.5 7.6 5.4 0 10-2.3 13.8-6.8 2.9 4.3 7.1 6.5 12.8 6.5 8.3 0 15.4-3.6 21.4-10.8 6-7.2 9-15.9 9-26-.1-12.8-5-23.8-14.9-32.9zm-32.4 50.7c-2.5 3.4-5.5 5.1-8.9 5.1-2.4 0-4.2-1.2-5.7-3.7-1.4-2.5-2.2-5.5-2.2-9.2 0-4.5 1-8.2 3-11 2-2.8 4.5-4.2 7.5-4.2 2.6 0 4.9 1 6.9 3.1s3 4.9 3 8.3c.1 4.4-1.1 8.2-3.6 11.6z"/>
</symbol>
<symbol id="calendar" viewBox="0 0 384 341.5">

	<clipPath id="calendar-b">
		<use overflow="visible" xlink:href="#calendar-a"/>
	</clipPath>
	<path fill="#292559" d="M11.2 270.2h294c2.6 0 5.2-.9 7.2-2.6 2.8-2.4 67.2-57.8 71.2-177.4H67.9C64 198.8 4.6 249.9 4 250.4c-3.6 3-5 8-3.3 12.5 1.6 4.4 5.8 7.3 10.5 7.3z" clip-path="url(#calendar-b)"/>
	<path fill="#292559" d="M372.8 22.7h-56.2V11.5c0-6.3-4.9-11.2-11.2-11.2S294 5.2 294 11.5v11.2h-57V11.5c0-6.3-5-11.2-11.2-11.2s-11.2 5-11.2 11.2v11.2h-56.2V11.5c0-6.3-5-11.2-11.2-11.2S136 5.3 136 11.5v11.2H79.5c-6.3 0-11.2 5-11.2 11.2v33.8H384V34c0-6.3-4.9-11.3-11.2-11.3zM326.9 284.9c-6.1 5.1-13.8 7.9-21.7 7.9h-237v33.8c0 6.2 5 11.2 11.2 11.2h293.3c6.2 0 11.2-5 11.2-11.2V200.4c-21.6 53.2-51.9 80.2-57 84.5z"/>
</symbol>
<symbol id="chairman" viewBox="0 0 512 512">
	<path fill="#ceb88b" d="M256 0C114.6 0 0 114.6 0 256s114.6 256 256 256 256-114.6 256-256S397.4 0 256 0z"/>
	<path fill="#fff" d="M259.2 164.2c30.3 0 50.9 19.3 53.1 47.7.2 2.4 2.2 4.2 4.6 4.2h32.4c1.5 0 2.7-1.2 2.7-2.7 0-49.5-39.1-84.2-93-84.2-62.8 0-99 42.4-99 112.5v29.9c0 69.5 36.2 111.4 99 111.4 53.7 0 93-33.6 93-80.8 0-1.5-1.2-2.7-2.7-2.7h-32.5c-2.4 0-4.3 1.8-4.6 4.2-2.4 26.3-22.9 44.5-53.1 44.5-37.3 0-58.3-27.4-58.3-76.3v-30.1c.1-49.9 21.1-77.6 58.4-77.6z"/>
</symbol>
<symbol id="checkmark" viewBox="0 0 612 612">
	<path d="M306 0C136.992 0 0 136.992 0 306s136.992 306 306 306 306-136.992 306-306S475.008 0 306 0zm122.266 199.55S293.282 434.654 290.949 436.834c-7.708 7.229-19.813 6.828-27.024-.88l-87.439-80.649c-7.229-7.708-6.828-19.813.88-27.043 7.708-7.21 19.813-6.828 27.023.88l68.429 63.112 122.304-211.848c5.279-9.142 16.983-12.278 26.125-7 9.161 5.298 12.298 17.003 7.019 26.144z"/>
</symbol>
<symbol id="linkedin" viewBox="0 0 262.22 263.7">
	<style>
		.st0{fill:#fff}
	</style>
	<path d="M62.32 33.57c-15.08 0-24.94 9.9-24.94 22.92 0 12.73 9.56 22.91 24.36 22.91h.29c15.37 0 24.94-10.18 24.94-22.91-.29-13.01-9.57-22.92-24.65-22.92zm0 0M39.98 97.51h44.08v132.62H39.98zM192.26 94.39c-23.78 0-39.73 22.35-39.73 22.35V97.51h-44.08v132.62h44.08v-74.06c0-3.96.29-7.92 1.45-10.76 3.19-7.92 10.44-16.12 22.62-16.12 15.95 0 22.33 12.16 22.33 29.99v70.95h44.08v-76.04c0-40.74-21.74-59.7-50.75-59.7zm0 0" class="st0"/>
</symbol>
<symbol id="mail" viewBox="0 0 240 240">
	<path d="M160.4 84.3H79.7l40.3 34.6 40.4-34.6z"/>
	<path d="M120 127.1c-.9 0-1.7-.3-2.3-.9L73.6 88.5v67.2h92.9V88.5l-44.1 37.8c-.7.5-1.5.8-2.4.8z"/>
	<path d="M120 0C53.7 0 0 53.7 0 120s53.7 120 120 120 120-53.7 120-120C239.9 53.8 186.2.1 120 0zm53.6 159.3c0 2-1.6 3.6-3.6 3.6H70c-2 0-3.6-1.6-3.6-3.6V80.7c0-2 1.6-3.6 3.6-3.6h100c2 0 3.6 1.6 3.6 3.6v78.6z"/>
</symbol>
<symbol id="pdf" viewBox="0 0 289.6 283.4">
	<path fill="#FE402F" d="M289.5 196s-.3-15.5-24.6-23.8-77.9 0-77.9 0c-19.4-17-45.7-58.8-45.7-58.8s8.5-19.2 15.3-56.3C166.6 3 134.7.2 134.7.2s-25.6-4.6-26 30.3 17.2 68.6 17.2 68.6C111.7 147 81 203.6 81 203.6c-63.7 26.6-72.5 42.8-76.9 47.9-4.4 5.1-13.7 37.3 25.7 31.1s74.8-80.1 74.8-80.1c20.2-10.1 81.3-22.8 81.3-22.8s19.6 28.7 63.7 34.8c44.3 6.2 39.9-18.5 39.9-18.5zM26 273.1c-9.5 4.5-18.5-1.4-19.7-6.7-1.6-6.8 5-18 17.6-26.1 25.3-16.3 49.9-25.7 49.9-25.7S56.3 258.9 26 273.1zm89.8-253.9C118.5 9 128.9 6.1 133.7 8.5c6.2 3.2 10.4 15.5 8.4 30.4-4.1 29.8-12.9 54.6-12.9 54.6s-22.3-42.1-13.4-74.3zm-7.1 173c14.5-22.9 30-69.5 30-69.5 8.4 16.2 40.1 53.4 40.1 53.4-18.5.9-70.1 16.1-70.1 16.1zm145.2 14.4c-33.4 0-60.2-28-60.2-28s21.9-3.1 51.3-2.2c15 .5 24.7 5.1 26 12 .9 5.3-.6 18.2-17.1 18.2z"/>
</symbol>
<symbol id="print" viewBox="0 0 240 240">
	<path d="M120 0C53.7 0 0 53.7 0 120s53.7 120 120 120 120-53.7 120-120C239.9 53.8 186.2.1 120 0z"/>
	<g fill="#FFF">
		<path d="M166.8 93h-12.2V73.1c0-1.8-1.5-3.3-3.3-3.3H88.7c-1.8 0-3.3 1.5-3.3 3.3V93H73.2c-4.2 0-7.7 3.4-7.7 7.7v42.2c0 4.2 3.4 7.7 7.7 7.7h12.2v16.3c0 1.8 1.5 3.3 3.3 3.3h62.6c1.8 0 3.3-1.5 3.3-3.3v-16.3h12.2c4.2 0 7.7-3.4 7.7-7.7v-42.2c-.1-4.3-3.5-7.7-7.7-7.7zM92 76.4h56V93H92V76.4zm56 87.2H92V131h56v32.6zm19.9-20.7c0 .6-.5 1.1-1.1 1.1h-12.2v-16.3c0-1.8-1.5-3.3-3.3-3.3H88.7c-1.8 0-3.3 1.5-3.3 3.3V144H73.2c-.6 0-1.1-.5-1.1-1.1v-42.2c0-.6.5-1.1 1.1-1.1h93.5c.6 0 1.1.5 1.1 1.1l.1 42.2z"/>
		<path d="M156 112c0 2.6-2.1 4.7-4.7 4.7s-4.7-2.1-4.7-4.7 2.1-4.7 4.7-4.7 4.7 2.1 4.7 4.7zM135 137.5h-30c-1.8 0-3.3 1.5-3.3 3.3 0 1.8 1.5 3.3 3.3 3.3h30c1.8 0 3.3-1.5 3.3-3.3 0-1.9-1.5-3.3-3.3-3.3zM135 150.6h-30c-1.8 0-3.3 1.5-3.3 3.3 0 1.8 1.5 3.3 3.3 3.3h30c1.8 0 3.3-1.5 3.3-3.3 0-1.9-1.5-3.3-3.3-3.3z"/>
	</g>
</symbol>
<symbol id="select" viewBox="0 0 17.927 11.011">
	<path fill="none" stroke="#707070" d="M.378.328l8.585 9.919L17.548.328"/>
</symbol>
<symbol id="speaker" viewBox="0 0 209.2 195.3">
	<g fill="#292559">
		<path d="M121.6.7c-2.4-1.2-5.3-.8-7.4.8L46.4 55.8H14c-7.7 0-14 6.3-14 13.9v55.8c0 7.7 6.3 14 14 14h32.4l67.8 54.3c1.3 1 2.8 1.5 4.4 1.5 1 0 2.1-.2 3-.7 2.4-1.2 3.9-3.6 3.9-6.3V7c0-2.7-1.5-5.1-3.9-6.3zM160.8 48.3c-2.8-2.7-7.1-2.7-9.9.1-2.7 2.8-2.7 7.2.1 9.9 10.5 10.4 16.4 24.4 16.4 39.4s-5.8 29-16.4 39.4c-2.7 2.7-2.8 7.1-.1 9.9 1.4 1.4 3.2 2.1 4.9 2.1 1.8 0 3.5-.7 4.9-2 13.2-13 20.5-30.5 20.5-49.3.1-18.9-7.1-36.4-20.4-49.5z"/>
		<path d="M180.5 28.7c-2.8-2.7-7.1-2.7-9.9 0-2.7 2.7-2.7 7.2 0 9.9 15.9 15.7 24.6 36.7 24.6 59.1s-8.7 43.3-24.6 59.1c-2.7 2.7-2.8 7.1 0 9.9 1.4 1.4 3.2 2.1 4.9 2.1 1.8 0 3.6-.7 4.9-2 18.5-18.3 28.7-42.8 28.7-69 .1-26.3-10.1-50.8-28.6-69.1z"/>
	</g>
</symbol>
<symbol id="twitter" viewBox="0 0 262.22 263.7">
	<path d="M236.29 72.02c-7.82 3.43-16.16 5.71-24.85 6.81 8.94-5.34 15.76-13.73 18.97-23.84-8.34 4.97-17.54 8.48-27.35 10.44-7.91-8.43-19.2-13.65-31.5-13.65-23.88 0-43.1 19.38-43.1 43.14 0 3.42.29 6.71 1 9.83C93.61 103 61.88 85.82 40.57 59.64c-3.72 6.46-5.9 13.84-5.9 21.8 0 14.94 7.69 28.18 19.16 35.84-6.93-.13-13.73-2.14-19.49-5.31v.47c0 20.96 14.95 38.37 34.55 42.38-3.51.96-7.34 1.42-11.31 1.42-2.76 0-5.55-.16-8.16-.74 5.59 17.08 21.44 29.64 40.3 30.04-14.67 11.48-33.3 18.39-53.47 18.39-3.54 0-6.93-.16-10.32-.59 19.1 12.32 41.74 19.35 66.16 19.35 79.36 0 122.75-65.74 122.75-122.72 0-1.91-.07-3.75-.16-5.57 8.56-6.07 15.75-13.65 21.61-22.38z" class="st0"/>
</symbol>
<symbol id="wifi" viewBox="0 0 244.5 239.9">
	<path d="M124.5 0C58.2 0 4.5 53.7 4.5 120s53.7 120 120 120 120-53.7 120-120C244.4 53.8 190.7.1 124.5 0z"/>
	<g fill="#FFF">
		<path d="M119.4 144.1c0 8.8-7.2 16-16 16s-16-7.2-16-16 7.2-16 16-16 16 7.2 16 16z"/>
		<path d="M140.8 152.3c0 4.4 3.6 8 8 8s8-3.6 8-8c0-33.9-27.6-61.6-61.6-61.6-4.4 0-8 3.6-8 8s3.6 8 8 8c25.2 0 45.6 20.5 45.6 45.6z"/>
		<path d="M178.4 160.3c4.4 0 8-3.6 8-8 0-50.2-40.9-91.1-91.1-91.1-4.4 0-8 3.6-8 8s3.6 8 8 8c41.4 0 75.1 33.7 75.1 75.1 0 4.4 3.5 8 8 8z"/>
	</g>
</symbol>
<symbol id="youtube" viewBox="0 0 262.22 263.7">
	<path d="M235.77 83.16c-2.37-8.8-9.31-15.74-18.11-18.11-16.08-4.4-80.41-4.4-80.41-4.4s-64.32 0-80.41 4.23c-8.63 2.37-15.74 9.48-18.11 18.28-4.23 16.08-4.23 49.43-4.23 49.43s0 33.51 4.23 49.43c2.37 8.8 9.31 15.74 18.11 18.11 16.25 4.4 80.41 4.4 80.41 4.4s64.32 0 80.41-4.23c8.8-2.37 15.74-9.31 18.11-18.11 4.23-16.08 4.23-49.43 4.23-49.43s.17-33.52-4.23-49.6zM116.76 163.4v-61.62l53.49 30.81-53.49 30.81zm0 0" class="st0"/>
</symbol>
</svg>