<svg xmlns="http://www.w3.org/2000/svg" width="52" height="52" viewBox="0 0 52 52">
    <path fill="#700728" d="M562.313 291.449a26 26 0 0 0-26 26 26 26 0 0 0 52 0 26 26 0 0 0-26-26zm11.638 21.678a16.166 16.166 0 0 1-24.871 14.354 11.423 11.423 0 0 0 8.416-2.353 5.686 5.686 0 0 1-5.309-3.948 5.672 5.672 0 0 0 2.566-.1 5.69 5.69 0 0 1-4.559-5.645 5.683 5.683 0 0 0 2.575.712 5.691 5.691 0 0 1-1.758-7.59 16.131 16.131 0 0 0 11.715 5.939 5.689 5.689 0 0 1 9.687-5.185 11.4 11.4 0 0 0 3.608-1.38 5.7 5.7 0 0 1-2.5 3.145 11.336 11.336 0 0 0 3.264-.895 11.544 11.544 0 0 1-2.834 2.946z" transform="translate(-536.314 -291.449)"/>
</svg>
