<svg id="Laag_1" data-name="Laag 1" xmlns="http://www.w3.org/2000/svg" viewBox="0 0 173.47 55.11"><defs><style>.cls-1,.cls-3{fill:#211261;}.cls-2{fill:#fff;}.cls-3{stroke:#211261;stroke-width:0.54px;}.cls-3,.cls-4{stroke-miterlimit:10;}.cls-4{fill:#6f6259;stroke:#6f6259;stroke-width:0.16px;}</style></defs><circle class="cls-1" cx="33.03" cy="27.87" r="8.87"/><path class="cls-1" d="M35.83,51.66A14.61,14.61,0,1,1,47.44,28.21a18.64,18.64,0,1,0,0,17.69A14.61,14.61,0,0,1,35.83,51.66Z" transform="translate(-7.77 -9.18)"/><path class="cls-1" d="M35.83,23.21a13.85,13.85,0,1,0,12.45,19.9,9.62,9.62,0,1,1,0-12.12A13.87,13.87,0,0,0,35.83,23.21Z" transform="translate(-7.77 -9.18)"/><path class="cls-1" d="M35.33,9.18a27.94,27.94,0,0,0-7,.9A27.56,27.56,0,0,1,50.41,36.3h0c0,.25,0,.5,0,.75s0,.51,0,.75h0A27.56,27.56,0,0,1,29.7,63.72a28.22,28.22,0,0,0,5.63.57,27.56,27.56,0,1,0,0-55.11Z" transform="translate(-7.77 -9.18)"/><path class="cls-1" d="M45.18,51.88a23.58,23.58,0,0,1-25,7.85A27.72,27.72,0,0,0,28,63.31,26.8,26.8,0,0,0,45.18,51.88Z" transform="translate(-7.77 -9.18)"/><path class="cls-1" d="M46.29,49a19.4,19.4,0,1,1,0-23.93,22.84,22.84,0,0,0-29.81-8.44A27.53,27.53,0,0,0,18,58.18a22.65,22.65,0,0,0,8.77,1.75A22.88,22.88,0,0,0,46.29,49Z" transform="translate(-7.77 -9.18)"/><path class="cls-1" d="M45.18,22.23A26.76,26.76,0,0,0,26.67,10.58a27.37,27.37,0,0,0-8.18,4.35,23.59,23.59,0,0,1,26.69,7.3Z" transform="translate(-7.77 -9.18)"/><path class="cls-2" d="M50.41,37.81h0c0-.24,0-.49,0-.75s0-.5,0-.75h0A27.56,27.56,0,0,0,28.32,10.08c-.56.15-1.1.32-1.65.5A26.76,26.76,0,0,1,45.18,22.23a23.59,23.59,0,0,0-26.69-7.3,25.32,25.32,0,0,0-2,1.72,22.84,22.84,0,0,1,29.81,8.44,19.4,19.4,0,1,0,0,23.93A22.88,22.88,0,0,1,26.8,59.93,22.65,22.65,0,0,1,18,58.18c.68.55,1.38,1.06,2.11,1.55a23.58,23.58,0,0,0,25-7.85A26.8,26.8,0,0,1,28,63.31c.54.15,1.1.29,1.66.41A27.56,27.56,0,0,0,50.41,37.81Zm-.73-.76a8.88,8.88,0,1,1-8.88-8.87A8.89,8.89,0,0,1,49.68,37.05ZM40.8,27.43a9.63,9.63,0,1,0,7.48,15.68,13.84,13.84,0,1,1,0-12.12A9.63,9.63,0,0,0,40.8,27.43ZM31,55.69a18.64,18.64,0,1,1,16.4-27.48,14.61,14.61,0,1,0,0,17.69A18.65,18.65,0,0,1,31,55.69Z" transform="translate(-7.77 -9.18)"/><path class="cls-3" d="M84.43,34a5.27,5.27,0,0,1-.1,1l-2,.13a4.07,4.07,0,0,0,.07-.85c0-2.29-1.68-4-4.44-4-3.41,0-5.73,2.56-5.73,6.45s2.25,6.38,6,6.38a6.28,6.28,0,0,0,5-2.08l1.23,1.3a8,8,0,0,1-6.29,2.53c-4.88,0-8-3.28-8-8.1s3.18-8.22,7.79-8.22C81.94,28.58,84.43,30.9,84.43,34Z" transform="translate(-7.77 -9.18)"/><path class="cls-3" d="M103.62,36.77c0,4.85-3.17,8.13-8,8.13s-8-3.28-8-8.13,3.18-8.19,8-8.19S103.62,31.92,103.62,36.77Zm-2.12,0c0-3.79-2.32-6.45-5.83-6.45S89.8,33,89.8,36.77s2.35,6.38,5.87,6.38S101.5,40.56,101.5,36.77Z" transform="translate(-7.77 -9.18)"/><path class="cls-3" d="M116.13,28.82l-.52,2.05a3.14,3.14,0,0,0-1.4-.28c-2.39,0-4.2,2.73-4.2,5.5v8.63h-2.08v-16l1.47-.07a31.35,31.35,0,0,1,.31,4.06h.07c.61-2.18,2.08-4.16,4.54-4.16A6.19,6.19,0,0,1,116.13,28.82Z" transform="translate(-7.77 -9.18)"/><path class="cls-3" d="M132.51,35.82a7.11,7.11,0,0,1-.11,1.36H120.05c.17,3.62,2.45,6,6.07,6a5.91,5.91,0,0,0,4.75-2.08l1.3,1.2A7.66,7.66,0,0,1,126,44.9c-4.95,0-8.06-3.25-8.06-8.13s3.14-8.19,7.65-8.19C129.88,28.58,132.51,31.58,132.51,35.82Zm-12.39-.18h10.27v-.13c0-3.21-1.91-5.19-4.81-5.19S120.49,32.44,120.12,35.64Z" transform="translate(-7.77 -9.18)"/><path class="cls-3" d="M146.79,43.74A6.3,6.3,0,0,1,143,45c-3.16,0-4.55-1.63-4.55-5V29.41h-2.77v-.63h2.77v-5l.7-.07v5.1h6.9v.63h-6.9V40c0,2.85,1.07,4.34,3.85,4.34a5.9,5.9,0,0,0,3.4-1.11Z" transform="translate(-7.77 -9.18)"/><path class="cls-3" d="M163.49,44.85a2.93,2.93,0,0,1-.77.1c-1,0-1.77-.52-1.77-2v-2h0a7.06,7.06,0,0,1-6.8,4c-3.23,0-5-1.49-5-4,0-3.79,4.27-4.72,10.07-4.93l1.8,0V34.4c0-3.09-2.11-5.13-5.45-5.13-3.09,0-5.31,1.73-5.31,4.37a3.57,3.57,0,0,0,.18,1.08l-.63.13a4,4,0,0,1-.21-1.31c0-2.92,2.5-4.9,6-4.9,3.79,0,6.15,2.26,6.15,5.76v8.51c0,1,.48,1.38,1.21,1.38a2.19,2.19,0,0,0,.56-.07ZM161,39.57V36.66l-1.8.07c-5.24.17-9.37.94-9.37,4.23,0,2,1.52,3.33,4.47,3.33A6.61,6.61,0,0,0,161,39.57Z" transform="translate(-7.77 -9.18)"/><path class="cls-3" d="M181,47.21C181,50.37,178,52,173.16,52c-4.51,0-7.53-1.73-7.53-4.54,0-2.19,1.49-3.54,3.54-4.06-1.7-.35-2.53-1.15-2.53-2.47a2.66,2.66,0,0,1,2.7-2.43,5.28,5.28,0,0,1-2.11-4.37c0-3.37,2.46-5.59,6.07-5.59a6.62,6.62,0,0,1,4.17,1.32c1.49-.17,2.11-1.66,2.11-2.95l.73.18c0,2-1.25,3.08-2.39,3.15a5.35,5.35,0,0,1,1.52,3.89c0,3.33-2.46,5.55-6.14,5.55a6.75,6.75,0,0,1-3.23-.73c-1.77,0-2.77.84-2.77,2,0,1.67,1.66,2,4.23,2h3.75C178.85,42.94,181,44.64,181,47.21Zm-.69,0c0-2.19-1.7-3.61-5-3.61h-3.85c-2.95,0-5.07,1.53-5.07,3.89s2.75,3.88,6.84,3.88C177.53,51.37,180.28,50,180.28,47.21Zm-7-8.12c3.26,0,5.45-2,5.45-4.93s-2.19-5-5.45-5-5.38,2-5.38,5S170.07,39.09,173.3,39.09Z" transform="translate(-7.77 -9.18)"/><path class="cls-4" d="M74.9,51.46h-2v-.17h4.19v.17h-2v5.38H74.9Z" transform="translate(-7.77 -9.18)"/><path class="cls-4" d="M80.59,55.14H77.78l-.64,1.7h-.2l2.14-5.55h.21l2.15,5.55h-.19ZM80.53,55l-1.28-3.31-.06-.19h0a.59.59,0,0,1,0,.19L77.85,55Z" transform="translate(-7.77 -9.18)"/><path class="cls-4" d="M86.61,56.87h-.13c-1.21,0-1-2.32-2.64-2.32h-1v2.29h-.18V51.29h1.57A1.63,1.63,0,0,1,86,52.94a1.58,1.58,0,0,1-1.59,1.6c1.09.11,1.21,2.17,2.09,2.17a.24.24,0,0,0,.1,0Zm-2.49-2.48a1.51,1.51,0,0,0,1.69-1.45,1.48,1.48,0,0,0-1.64-1.48H82.8v2.93Z" transform="translate(-7.77 -9.18)"/><path class="cls-4" d="M89.16,54.31h2.41v2.53h-.12c0-.15,0-.45,0-1.08a1.81,1.81,0,0,1-1.82,1.11c-1.43,0-2.34-1.12-2.34-2.81s1-2.82,2.38-2.82a1.87,1.87,0,0,1,2,1.6l-.19,0a1.68,1.68,0,0,0-1.81-1.49c-1.32,0-2.2,1.06-2.2,2.66s.84,2.65,2.16,2.65a1.68,1.68,0,0,0,1.82-1.5v-.73H89.16Z" transform="translate(-7.77 -9.18)"/><path class="cls-4" d="M93.31,51.46v2.39h2.81V54H93.31v2.65h3.06v.17H93.13V51.29h3.24v.17Z" transform="translate(-7.77 -9.18)"/><path class="cls-4" d="M99,51.46H97v-.17h4.19v.17h-2v5.38H99Z" transform="translate(-7.77 -9.18)"/><path class="cls-4" d="M102.35,51.46v2.39h2.81V54h-2.81v2.65h3.07v.17h-3.25V51.29h3.25v.17Z" transform="translate(-7.77 -9.18)"/><path class="cls-4" d="M110.84,54.06c0,1.69-.9,2.78-2.45,2.78h-1.6V51.29h1.26A2.59,2.59,0,0,1,110.84,54.06Zm-.18,0a2.41,2.41,0,0,0-2.61-2.6H107v5.21h1.42C109.83,56.67,110.66,55.65,110.66,54.06Z" transform="translate(-7.77 -9.18)"/><path class="cls-4" d="M118.55,54.06c0,1.69-.89,2.78-2.45,2.78h-1.6V51.29h1.26A2.59,2.59,0,0,1,118.55,54.06Zm-.18,0a2.41,2.41,0,0,0-2.61-2.6h-1.08v5.21h1.42C117.55,56.67,118.37,55.65,118.37,54.06Z" transform="translate(-7.77 -9.18)"/><path class="cls-4" d="M120,51.29h.18v5.55H120Z" transform="translate(-7.77 -9.18)"/><path class="cls-4" d="M125,55.14h-2.81l-.65,1.7h-.19l2.14-5.55h.2l2.15,5.55h-.18ZM125,55l-1.28-3.31-.06-.19h0a1.05,1.05,0,0,1,0,.19L122.28,55Z" transform="translate(-7.77 -9.18)"/><path class="cls-4" d="M128.48,54.31h2.41v2.53h-.12c0-.15,0-.45-.05-1.08a1.82,1.82,0,0,1-1.82,1.11c-1.43,0-2.34-1.12-2.34-2.81s1-2.82,2.37-2.82a1.87,1.87,0,0,1,2,1.6l-.19,0a1.68,1.68,0,0,0-1.82-1.49c-1.31,0-2.19,1.06-2.19,2.66s.84,2.65,2.16,2.65a1.68,1.68,0,0,0,1.82-1.5v-.73h-2.24Z" transform="translate(-7.77 -9.18)"/><path class="cls-4" d="M136.51,56.84h-.28L133,52c-.11-.17-.31-.47-.32-.5h0a2.54,2.54,0,0,1,0,.39v5h-.19V51.29h.25L136,56.15l.34.52h0a3.52,3.52,0,0,1,0-.41v-5h.19Z" transform="translate(-7.77 -9.18)"/><path class="cls-4" d="M142.9,54.06a2.49,2.49,0,1,1-4.94,0c0-1.79,1.06-2.82,2.46-2.82S142.9,52.27,142.9,54.06Zm-.18,0a2.32,2.32,0,1,0-4.58,0,2.31,2.31,0,1,0,4.58,0Z" transform="translate(-7.77 -9.18)"/><path class="cls-4" d="M145.77,51.4c-.88,0-1.52.48-1.52,1.19,0,1.82,3.36.82,3.36,2.92,0,.81-.71,1.36-1.82,1.36a2.85,2.85,0,0,1-2-.63l.11-.13a2.79,2.79,0,0,0,1.86.6c1,0,1.64-.49,1.64-1.2,0-1.91-3.36-.91-3.36-2.91,0-.81.71-1.36,1.7-1.36a1.67,1.67,0,0,1,1.74,1.11l-.19,0A1.57,1.57,0,0,0,145.77,51.4Z" transform="translate(-7.77 -9.18)"/><path class="cls-4" d="M150.11,51.46h-2v-.17h4.19v.17h-2v5.38h-.18Z" transform="translate(-7.77 -9.18)"/><path class="cls-4" d="M153.32,51.29h.18v5.55h-.18Z" transform="translate(-7.77 -9.18)"/><path class="cls-4" d="M159.36,52.85l-.17,0a1.73,1.73,0,0,0-1.81-1.49c-1.29,0-2.24,1-2.24,2.66a2.34,2.34,0,0,0,2.33,2.65,2.18,2.18,0,0,0,1.8-.89l.14.12a2.37,2.37,0,0,1-1.94.93c-1.49,0-2.51-1-2.51-2.81s1-2.82,2.42-2.82A1.86,1.86,0,0,1,159.36,52.85Z" transform="translate(-7.77 -9.18)"/><path class="cls-4" d="M162.14,51.4c-.89,0-1.52.48-1.52,1.19,0,1.82,3.35.82,3.35,2.92,0,.81-.71,1.36-1.82,1.36a2.85,2.85,0,0,1-2-.63l.11-.13a2.79,2.79,0,0,0,1.86.6c1,0,1.64-.49,1.64-1.2,0-1.91-3.36-.91-3.36-2.91,0-.81.71-1.36,1.71-1.36a1.69,1.69,0,0,1,1.74,1.11l-.2,0A1.55,1.55,0,0,0,162.14,51.4Z" transform="translate(-7.77 -9.18)"/></svg>