<svg xmlns="http://www.w3.org/2000/svg" width="40.9" height="40.9"><path d="M24.9 12.6c1.4.8 2.6 2 3.4 3.4-1.5.9-3.2 1.5-4.9 1.5 0-1.7.5-3.5 1.5-4.9m3.4 12.2c-1.5-.9-3.2-1.5-5-1.5.1 1.8.6 3.5 1.5 5 1.5-.8 2.7-2 3.5-3.5m-3.8-4.4c1.3 1.2 2.9 2 4.6 2.4.4-1.6.4-3.2 0-4.8-1.7.4-3.3 1.3-4.6 2.4m-8.2 0c-1.3-1.2-2.9-2-4.6-2.4-.4 1.6-.4 3.2 0 4.8 1.8-.4 3.3-1.2 4.6-2.4m1.2 2.9c-1.8.1-3.5.6-4.9 1.5.8 1.4 2 2.6 3.4 3.4.9-1.4 1.5-3.1 1.5-4.9m0-5.8c-.1-1.8-.6-3.5-1.6-5-1.4.8-2.6 2.1-3.4 3.5 1.6.9 3.3 1.5 5 1.5m2.9 7c-1.2 1.3-2 2.9-2.4 4.6 1.6.4 3.2.4 4.8 0-.4-1.7-1.2-3.3-2.4-4.6m0-8.2c1.2-1.3 2-2.9 2.4-4.6-1.6-.4-3.2-.4-4.8 0 .4 1.7 1.2 3.3 2.4 4.6" opacity=".5" fill="#070101"/><path d="M28.5 8.9c2-1.3 4.1-2.3 6.4-2.9-.6 2.3-1.6 4.4-2.9 6.4-1-1.4-2.1-2.6-3.5-3.5m-5.6-2.3C22.4 4.3 21.6 2 20.4 0c-1.2 2-2 4.3-2.4 6.6.8-.1 1.6-.2 2.5-.2.8-.1 1.6 0 2.4.2M28.5 32c2 1.3 4.1 2.3 6.4 2.9-.6-2.3-1.6-4.4-2.9-6.4-1 1.4-2.1 2.5-3.5 3.5M6.6 18c-2.3.5-4.6 1.3-6.6 2.4 2 1.2 4.3 2 6.6 2.5-.3-1.6-.3-3.3 0-4.9m27.7 4.9c2.3-.5 4.5-1.3 6.6-2.5-2-1.1-4.3-2-6.6-2.4.3 1.6.3 3.3 0 4.9M12.4 9c-2-1.3-4.1-2.3-6.4-3 .6 2.3 1.6 4.4 2.9 6.4C9.8 11 11 9.8 12.4 9M18 34.3c.5 2.3 1.3 4.5 2.5 6.6 1.2-2 2-4.3 2.5-6.6-1.7.3-3.4.3-5 0m-9.1-5.8c-1.3 2-2.3 4.1-2.9 6.4 2.3-.6 4.4-1.6 6.4-2.9-1.4-1-2.6-2.1-3.5-3.5" fill="#070101"/><path d="M23.2 31.8c0 .8-.1 1.7-.2 2.5-1.7.3-3.3.3-5 0-.2-.8-.2-1.7-.2-2.5 0-.9.1-1.8.3-2.7 1.6.4 3.2.4 4.8 0l.3 2.7M29.1 18c.4 1.6.4 3.2 0 4.8.9.2 1.8.3 2.7.3.8 0 1.7-.1 2.5-.2.3-1.6.3-3.3 0-4.9-.8-.2-1.7-.2-2.5-.2-.9-.1-1.8 0-2.7.2m-.8 6.9c-.8 1.4-2 2.6-3.4 3.4.5.8 1 1.5 1.7 2.1.6.6 1.3 1.1 2 1.6 1.4-1 2.5-2.1 3.5-3.5-.5-.7-1-1.4-1.6-2-.7-.6-1.4-1.2-2.2-1.6m-16.5-2.1c-.4-1.6-.4-3.2 0-4.8-.9-.2-1.8-.3-2.7-.3-.9 0-1.7.1-2.5.3-.3 1.6-.3 3.3 0 5 .8.2 1.7.2 2.5.2.9 0 1.8-.1 2.7-.4m13.1-10.2c1.4.8 2.6 2 3.4 3.4.8-.5 1.5-1 2.1-1.7.6-.6 1.1-1.3 1.6-2-1-1.4-2.1-2.5-3.5-3.5-.7.5-1.4 1-2 1.6-.6.7-1.2 1.4-1.6 2.2m-6.9-.9c1.6-.4 3.2-.4 4.8 0 .2-.9.3-1.8.3-2.7 0-.8-.1-1.7-.2-2.5-1.7-.3-3.3-.3-5 0-.2.8-.2 1.7-.2 2.5-.1 1 .1 1.9.3 2.7M12.6 16c.8-1.4 2-2.6 3.4-3.4-.5-.8-1-1.5-1.7-2.1-.6-.6-1.3-1.1-2-1.6-1.4 1-2.5 2.1-3.5 3.5.5.7 1 1.4 1.6 2 .7.6 1.4 1.1 2.2 1.6M16 28.3c-1.4-.8-2.6-2-3.4-3.4-.8.5-1.5 1-2.1 1.7-.6.6-1.1 1.3-1.6 2 1 1.4 2.1 2.5 3.5 3.5.7-.5 1.4-1 2-1.6.6-.7 1.2-1.4 1.6-2.2" opacity=".75" fill="#070101"/></svg>